/* XPM */
static char *fe4b2d9c43e34c45d785fe305422e8b541aIjo3SD0EAPpg5[] = {
/* columns rows colors chars-per-pixel */
"48 48 9 1 ",
"  c None",
". c #5C4E92",
"X c #F3F2C0",
"o c #E8B5AC",
"O c #F3D8C5",
"+ c #766DAA",
"@ c #EAE178",
"# c #DDD5DE",
"$ c white",
/* pixels */
"                                                ",
"                                                ",
"                                                ",
"                                                ",
"                                                ",
"                                                ",
"                                                ",
"                                                ",
"                                                ",
"                                                ",
"                                                ",
"                                                ",
"                                                ",
"                                                ",
"                                                ",
"                                                ",
"                       ...                      ",
"                      .XXX.                     ",
"                     ..XooX.                    ",
"                    .XXXooX.                    ",
"                    .XXXXXX.                    ",
"                    .XXXXXX.                    ",
"                   ..XXXXXX..                   ",
"                   .XX.XXXX.                    ",
"                   .XXXXXXX..                   ",
"                   .XXXOOXX.                    ",
"                    .+++++.                     ",
"                    @++++X#.                    ",
"                    @.XXXX#.                    ",
"                     .XXXX.                     ",
"                      .##.                      ",
"                       ..                       ",
"                                                ",
"                                                ",
"                                                ",
"                                                ",
"                                                ",
"                                                ",
"                                                ",
"                                                ",
"                                                ",
"                                                ",
"                                                ",
"                                                ",
"                                                ",
"                                                ",
"                                                ",
"                                                "
};
