/* XPM */
static char *_f7019c767c94c2eff8033d3df6375efRUP2Z6wuUnfGKMl9[] = {
/* columns rows colors chars-per-pixel */
"16 28 11 1 ",
"  c black",
". c None",
"X c #5F7A79",
"o c #97BB8E",
"O c #AED499",
"+ c #C2E09A",
"@ c #6E967C",
"# c #90625D",
"$ c #AA7959",
"% c #C49A6C",
"& c white",
/* pixels */
"     XXXXXX     ",
"   XXoOOOOoXX   ",
"  XoOO++OOOOoX  ",
"  XoOO++O++OoX  ",
" XoO+++OO+++OoX ",
" XoO+++OOO++OoX ",
" XOOOOOO++OOOoX ",
" XoOOOOOOOOOOoX ",
" XoOOOOOOOOOOoX ",
" XooOOooOOoOooX ",
"  XooOOOooooooX ",
"  XooooooOOoooX ",
" XooOOoooooooX  ",
" X@oooooooooo@X ",
" X@oooooooooo@X ",
" X@@@oo@@oo@@@X ",
" X@oo@o@@@@oo@X ",
" X@@@@@@oo@@@@X ",
"  X@@@@@@@@@@X  ",
"  X@@@@@@@@@@X  ",
"   XXXXXXXXXX   ",
"     #$$$$#     ",
"     #%$%$#     ",
"     #%%%%#     ",
"   ..#%%%%#..   ",
"  ..#%%%%%%#..  ",
"  ....%%%%....  ",
"   ....%.....   "
};
