/* XPM */
static char *a446bb49903343379ed9d1e8d168d415gmfYyZ8Ir69T3akx[] = {
/* columns rows colors chars-per-pixel */
"64 64 162 2 ",
"   c #7E4D48",
".  c #84534A",
"X  c #87594D",
"o  c #885C4F",
"O  c #895F52",
"+  c #9D6F4A",
"@  c #896254",
"#  c #946A52",
"$  c #9E6E59",
"%  c #9F755D",
"&  c #A87C59",
"*  c #8E6861",
"=  c #9A756B",
"-  c #937270",
";  c #997774",
":  c #997977",
">  c #A17A6E",
",  c #A97F6C",
"<  c #A07C75",
"1  c #97B952",
"2  c #9BBD54",
"3  c #B08B61",
"4  c #B08969",
"5  c #B59767",
"6  c #B6996A",
"7  c #A68574",
"8  c #AB8470",
"9  c #AD8873",
"0  c #A2897D",
"q  c #B28F76",
"w  c #B89574",
"e  c #BA9B72",
"r  c #B5947B",
"t  c #B9957B",
"y  c #BA9878",
"u  c #C2A27F",
"i  c #C8B37F",
"p  c #A2C156",
"a  c #AECA54",
"s  c #A6C458",
"d  c #AAC759",
"f  c #ADC95B",
"g  c #B1CC56",
"h  c #B3CD5D",
"j  c #B7D05F",
"k  c #B6CE62",
"l  c #B6D160",
"z  c #B9D166",
"x  c #B9D16A",
"c  c #BDD374",
"v  c #BFD47A",
"b  c #C0D56F",
"n  c #C2D672",
"m  c #C6D977",
"M  c #C1D77A",
"N  c #CBDC7D",
"B  c #B09487",
"V  c #B49B96",
"C  c #B49C98",
"Z  c #BCA284",
"A  c #BDA394",
"S  c #BFAA90",
"D  c #BAAB98",
"F  c #BCB09A",
"G  c #C6AB81",
"H  c #CCAD86",
"J  c #C2A88F",
"K  c #CAB484",
"L  c #C7B28B",
"P  c #CEB68D",
"I  c #D4B58A",
"U  c #D7BA8E",
"Y  c #C3B295",
"T  c #C3BC9D",
"R  c #CBB4A4",
"E  c #CCBBAB",
"W  c #CABDB8",
"Q  c #C4D684",
"!  c #C5D887",
"~  c #CEDF82",
"^  c #C7D68A",
"/  c #C6D989",
"(  c #C9DD8D",
")  c #D0DF83",
"_  c #CAC39B",
"`  c #CECB9E",
"'  c #D4C390",
"]  c #DEC092",
"[  c #D7CA94",
"{  c #D8CC97",
"}  c #D5C899",
"|  c #DBCE9B",
" . c #CCDD93",
".. c #CDD39B",
"X. c #CEDC9C",
"o. c #DCD29E",
"O. c #D0D99F",
"+. c #E2C595",
"@. c #E3C897",
"#. c #E4CD9B",
"$. c #E5D29E",
"%. c #D2E185",
"&. c #D6E38A",
"*. c #D8E58D",
"=. c #DCE792",
"-. c #DDE893",
";. c #D1E29F",
":. c #CCC5A5",
">. c #D0C1AA",
",. c #D6CCAD",
"<. c #CED5A0",
"1. c #D2DCA5",
"2. c #DFDAA3",
"3. c #D4D4A9",
"4. c #D5DFA9",
"5. c #CBC4B5",
"6. c #CCC1BA",
"7. c #D7CEBD",
"8. c #D8CDBF",
"9. c #DAD5B6",
"0. c #D7D9B3",
"q. c #DADCB4",
"w. c #DDD3BD",
"e. c #E2DCA4",
"r. c #EBDDA6",
"t. c #D5E2A5",
"y. c #D6E3AB",
"u. c #DCE2B7",
"i. c #DDE8B7",
"p. c #DEE7BA",
"a. c #DEE8B9",
"s. c #EBE3AA",
"d. c #EDEBAD",
"f. c #EFEDB2",
"g. c #F0E3B6",
"h. c #F0EDB3",
"j. c #F0E3BC",
"k. c #F0EBBD",
"l. c #F0F1B3",
"z. c #F1F1BC",
"x. c #DDD3C4",
"c. c #DED9C5",
"v. c #E1DCC3",
"b. c #DFE5C2",
"n. c #E2E7C4",
"m. c #E4ECC6",
"M. c #E0E0CA",
"N. c #E6E9CA",
"B. c #F0E5C1",
"V. c #F0ECC2",
"C. c #F0ECCA",
"Z. c #F0F1C2",
"A. c #F0F2CA",
"S. c #F1F2CD",
"D. c #E7E0D4",
"F. c #E9E4D6",
"G. c #F0ECD1",
"H. c #F0EFDC",
"J. c #F0F1D2",
"K. c #F0F2DC",
"L. c #F0F2DE",
"P. c #F0F2E2",
/* pixels */
"h h h h h h h h h h h h h h h h h h h h h h h h h h h h h h h h h h h h h h h h h h h h h h h h h h h h h h h h h h h h h h h h ",
"h h h h h h h h h h h h h h h h h h h h h h h h h h h h h h h h h h h h h h h h h h h h h h h h h h h h h h h h h h h h h h h h ",
"h h h h h h h h h h h h h h h h h h h h h h h h h h h h h h h h h h h h h h h h h h h h h h h h h h h h h h h h h h h h h h h h ",
"h h h h h h h h h h h h h h h h h h h h h h h h h h h h h h h h h h h h h h h h h h h h h h h h h h h h h h h h h h h h h h h h ",
"h h h h h h h h h h h h h h h h h h h h h h h h h h h f f h h h f f h h h h h h h h h h h h h h h h h h h h h h h h h h h h h h ",
"h h h h h h h h h h h h h h h h h h h h h h h h h h d p p f h h p p s h h h h h h h h h h h h h h h h h h h h h h h h h h h h h ",
"h h h h h h h h h h h h h h h h h h h h h h h h h h s 2 2 d h f 2 2 p f h h h h h h h h h h h h h h h h h h h h h h h h h h h h ",
"h h f d d f h h f d f h h h h h h h h h h h h h h h d 2 2 p d s 2 2 p f h h h h h h h h h h h h h h h h h h h h h h h h h h h h ",
"h h s 2 2 d h h p 2 p f h h h h h h h h h h h h h h h f s 2 2 2 p d f h h h h h h h h h h h h h h h h h h h h h h h h h h h h h ",
"h h s 2 2 s f d 2 2 p f h h h h h h h h h h h h h h h h f p 1 2 d h h h h h h h h h h h h h h h h h h h h h h h h h h h h h h h ",
"h h d p 2 p p p 2 p s h h h h h h h h h h h h h h h h h h s p p f h h h h h h h h h h h h h h h h h h h h h h h h h h h h h h h ",
"h h h h d 2 2 2 s f h h h h h h h h h h h h h h h h h h h h f f h h h h h h h h h h h h h h h h h h h h h h h h h h h h h h h h ",
"h h h h h p 2 2 f h h h h h h h h h h h h h h h h h h h h h h h h h h h h h h h h h h h h h h h h h h h h h h h h h h h h h h h ",
"h h h h h d s s h h h h h h h h h h h h h h h h h h h h h h h h h h h h h h h h h h h h h h h h h h h h h h h h h h h h h h h h ",
"h h h h h h h h h h h h h h h h h h h h h h h h h h h h h h h h h h h h h h h h h h h h h h h h h h h h h h h h h h h h h h h h ",
"h h h h h h h h h h h h h h h h h h h h h h h h h h h h h h h h h h h h h h h h h h h h h h h h h h h h h h h h h h h h h h h h ",
"h h h h h h h h h h h h h h h h h h h h h h h h h h h h h h h h h h h h h h h h h h h h h h h h h h h h h h h h h h h h h h h h ",
"h h h h h h h h h h h h h h h h h h h h h h h h h h h h h g a a a a a a h h h h h h h h h h h h h h h h h h h h h h h h h h h h ",
"h h h h h h h h h h h h h h h h h h h h h h h h h h h h h v / ! ! ! / Q k h h h h h h h h h h h h h h h h h h h h h h h h h h h ",
"h h h h h h h h h h h h h h h h h h h h h h h h h h h h k 4.N.n.n.n.m.p.c h h h h h h h h h h h h h h h h h h h h h h h h h h h ",
"h h h h h h h h h h h h h h h h h h h h h h h h h h h x c 3.x.w.w.w.w.9.Q x k h h h h h h h h h h h h h h h h h h h h h h h h h ",
"h h h h h h h h h h h h h h h h h h h h h h h h h g x  .u.S , 9 9 9 8 r 0.t.M g h h h h h h h h h h h h h h h h h h h h h h h h ",
"h h h h h h h h h h h h h h h h h h h h h h h h a M X.` E Z 5 6 6 6 5 e R :...( h h h h h h h h h h h h h h h h h h h h h h h h ",
"h h h h h h h h h h h h h h h h h h h h h h h h k y.w.Z & [ l.f.f.f.l.s.3 q >.b.c h h h h h h h d d f h h f d d h h h h h h h h ",
"h h h h h h h h h h h h h h h h h h h h h h g x m.Y 4 G o.d.h.g.V.J.A.d.e.L 7 0 n.( a h h h h d 2 2 s h h s 2 2 d h h h h h h h ",
"h h h h h h h h h h h h h h h h h h h h h k c ^ ,.Z e ' d.z.k.g.B.G.C.l.l.} q > E ..M k h h h d 2 2 p f f p 2 2 d h h h h h h h ",
"h h h h h h h h h h h h h h h h h h h h h z  .q.t G { e.h.S.C.g.j.B.k.l.l.e.P t < :.t.x h h h f p 2 p p p p 2 p f h h h h h h h ",
"h h h h h h h h h h h h h h h h h h h h h z y.D.% K h.z.z.K.H.j.j.g.h.l.l.s.$.H . W m.c h h h h h f p 2 2 p f h h h h h h h h h ",
"h h h h h h h h h h h h h h h h h h h h g l y.F.$ i f.S.K.P.P.K.S.z.l.l.l.s.#.H   6.m.x h h h h j h s 2 2 s h j h h h h h h h h ",
"h h h h h h h h h h h h h h h h h h h k  .O._ J K $.f.V.C.H.K.A.z.l.l.l.l.s.$.U y B F ..X.c g h h h f s s f h h h h h h h h h h ",
"h h h h h h h h h h h h h h h h h h g x i.v.A + $.h.h.h.g.G.J.l.l.l.l.l.f.r.$.+.] % ; 7.n.! a h h h h h h h h h h h h h h h h h ",
"h h h h h h h h h h h h h h h h h h g x p.v.A # e.l.l.h.h.V.Z.l.l.l.l.f.r.$.@.+.+.% : 8.n.! a h h h h h h h h h h h h h h h h h ",
"h h h h h h h h h h h h h h h h h h g x a.c.C @ 2.l.l.l.l.l.l.l.l.l.l.f.$.+.+.+.+.% : 8.n.! a h h h h h h h h h h h h h h h h h ",
"h h h h h h h h h h h h h h h h h h g x a.c.V @ 2.l.l.l.l.l.l.l.l.l.l.l.#.+.+.+.+.% : 8.n.! a h h h h h h h h h h h h h h h h h ",
"h h h h h h h h h h h h h h h h h h g x a.c.V @ 2.l.l.l.l.l.l.l.l.l.f.s.#.+.+.+.+.% : 8.n.! a h h h h h h h h h h h h h h h h h ",
"h h h h h h h h h h h h h h h h h h g x a.c.V @ 2.l.l.l.l.l.l.l.l.h.r.+.+.+.+.+.+.% : 8.n.! a h h h h h h h h h h h h h h h h h ",
"h h h h h h h h h h h h h h h h h h g x a.c.V @ e.l.l.l.l.l.l.l.d.s.$.+.+.+.+.+.+.% : 8.n.! a h h h h h h h h h h h h h h h h h ",
"h h h h h h h h h h h h h h h h h h h x i.c.V o o.f.l.l.l.l.l.h.s.$.+.+.+.+.+.+.] % ; 7.n.! a h h h h h h h h h h h h h h h h h ",
"h h h h h h h h h h h h h h h h h h h k  .<.T V Z o.f.l.l.l.d.r.$.@.+.+.+.+.+.U w B F <.X.c g h h h h h h h h h h h h h h h h h ",
"h h h h h h h h h h h h h h h h h h h h g l ;.M.- Z o.e.2.e.| I I I I I I I I u * 5.a.x h h h h h h h h h h h h h h h h h h h h ",
"h h h h h h h h h h h h h h h h h h h h h h z Q M.V o @ @ @ O X X X X X X X X = x.X.x k h h h h h h h h h h h h h h h h h h h h ",
"h h h h h h h h h h h h h h h h h h h h h h h z ;.T V V V V V C C C C C C C C D 1.M g h h h h h h h h h h h h h h h h h h h h h ",
"h h h h h h h h h h h h h h h h h h h h h h h h l <.c.c.c.c.c.c.c.c.c.c.c.c.c.0.c h h h h h h h h h h h h h h h h h h h h h h h ",
"h h h h h h h h h h h h h h h h h h h h h h h h g  .i.a.a.p.p.a.a.p.p.a.a.a.i.t.k h h h h h h h h h h h h h h h h h h h h h h h ",
"h h h h h h h h h h h h h h h h h h h h h h h h h k x x x x x x x x x x x x x k h h h h h h h h h h h h h h h h h h h h h h h h ",
"h h h h h h h h h h h h h h h h h h h h h h h h h h g g g g g g g g g g g g g h h h h h h h h h h h h h h h h h h h h h h h h h ",
"h h h h h h h h h h h h h h h h h h h h h h h h h h h h h h h h h h h h h h h h h h h h h h h h h h h h h h h h h h h h h h h h ",
"h h h h h h h h h h h h h h h h h h h h h h h h h h h h h h h h h h h h h h h h h h h h h h h h h h h h h h h h h h h h h h h h ",
"h h h h h h h h a a h h h h a a h h h h h h h h h h h h h h h h h h h h h h h h h h h h h h h h h h h h h h h h h h h h h h h h ",
"h h h h h h h h k k k h h k k k h h h h h h h h h h h h h h h h h h h h h h h h h h h h h h h h h h h h h h h h h h h h h h h h ",
"h h h h h h h x m N b h h b N m x h h h h h h h h h h h h h h h h h h h h h h h h h h h h h h h h h h h h h h h h h h h h h h h ",
"h h h h h a h n &.-.N k k N -.&.n h a h h h h h h h h h h h h h h h h h h h h h h h h h h h h h h h h h h h h h h h h h h h h h ",
"h h h h h a h n &.-.%.b b %.-.&.n h a h h h h h h h h h h h h h h h h h h h h h h h h h h h h h h h h h h h h h h h h h h h h h ",
"h h h h h h h z n N %.%.%.%.N n z h h h h h h h h h h h h h h h h h h h h h a a h h h a a h h h h h h h h h h h h h h h h h h h ",
"h h h h h h h h h z N -.-.N z h h h h h h h h h h h h h h h h h h h h h h h h h h h h h h h h h h h h h h h h h h h h h h h h h ",
"h h h h h h h h a h n &.&.n h a h h h h h h h h h h h h h h h h h h h h k x n x k h z n n x h h h h h h h h h h h h h h h h h h ",
"h h h h h h h h h h z n n z h h h h h h h h h h h h h h h h h h h h h h z ~ *.%.z h b &.&.m k a h h h h h h h h h h h h h h h h ",
"h h h h h h h h h h h h h h h h h h h h h h h h h h h h h h h h h h h h z %.-.*.b z N -.-.N k a h h h h h h h h h h h h h h h h ",
"h h h h h h h h h h h a a h h h h h h h h h h h h h h h h h h h h h h h z m %.&.~ N ) &.~ n k h h h h h h h h h h h h h h h h h ",
"h h h h h h h h h h h h h h h h h h h h h h h h h h h h h h h h h h h h h h x N *.-.%.n z h h h h h h h h h h h h h h h h h h h ",
"h h h h h h h h h h h h h h h h h h h h h h h h h h h h h h h h h h h h h a h x &.=.~ z a a h h h h h h h h h h h h h h h h h h ",
"h h h h h h h h h h h h h h h h h h h h h h h h h h h h h h h h h h h h h a h z m N n h a h h h h h h h h h h h h h h h h h h h ",
"h h h h h h h h h h h h h h h h h h h h h h h h h h h h h h h h h h h h h h h h k k k h h h h h h h h h h h h h h h h h h h h h ",
"h h h h h h h h h h h h h h h h h h h h h h h h h h h h h h h h h h h h h h h h a a a h h h h h h h h h h h h h h h h h h h h h "
};
