/* XPM */
static char *_1da72b5b17f4c4fb1d0b666ef526c62l29tWFfcpUkypyhF[] = {
/* columns rows colors chars-per-pixel */
"64 64 148 2 ",
"   c #1B0074",
".  c #2E137B",
"X  c #331A7A",
"o  c #3A267B",
"O  c #3B2B7A",
"+  c #44317F",
"@  c #463D78",
"#  c #4B4475",
"$  c #48457A",
"%  c #49497A",
"&  c #555572",
"*  c #595B71",
"=  c #5C616C",
"-  c #5E6270",
";  c #656C6F",
":  c #737E68",
">  c #696B77",
",  c #656578",
"<  c #6C7676",
"1  c #777F79",
"2  c #72836A",
"3  c #7B866C",
"4  c #7E8A6D",
"5  c #97B952",
"6  c #9BBD54",
"7  c #A6BF5F",
"8  c #899A66",
"9  c #86946B",
"0  c #8F977C",
"q  c #929F72",
"w  c #8FA262",
"e  c #98AB66",
"r  c #96A869",
"t  c #9EB266",
"y  c #A0B564",
"u  c #A4BA61",
"i  c #A8BE62",
"p  c #9FC053",
"a  c #A2C156",
"s  c #AECA56",
"d  c #A6C458",
"f  c #AAC65A",
"g  c #ADC95B",
"h  c #B3CD5D",
"j  c #B6D15B",
"k  c #B8D35A",
"l  c #BDD959",
"z  c #ABC360",
"x  c #B5CE61",
"c  c #B9D166",
"v  c #BCD36A",
"b  c #C0DB5B",
"n  c #EAE157",
"m  c #C0D56F",
"M  c #C2D672",
"N  c #C6D977",
"B  c #C7DA78",
"V  c #CBDC7D",
"C  c #E2DB71",
"Z  c #EDE77B",
"A  c #321798",
"S  c #453286",
"D  c #4D3B80",
"F  c #4E358C",
"G  c #534482",
"H  c #544B83",
"J  c #5C5183",
"K  c #534696",
"L  c #5B4E96",
"P  c #514399",
"I  c #5C509A",
"U  c #695D94",
"Y  c #685E9A",
"T  c #6B619B",
"R  c #7C66AC",
"E  c #B37991",
"W  c #8174A1",
"Q  c #8F8587",
"!  c #909288",
"~  c #848192",
"^  c #8E8597",
"/  c #8F8996",
"(  c #8F8899",
")  c #918E90",
"_  c #A38F93",
"`  c #B68895",
"'  c #A79294",
"]  c #B99999",
"[  c #978EA8",
"{  c #9591A5",
"}  c #A59ABA",
"|  c #AB9FBC",
" . c #BEA1A6",
".. c #BFBEA1",
"X. c #B5ABB7",
"o. c #B8AFBE",
"O. c #E79C9A",
"+. c #E1A49C",
"@. c #C29FA7",
"#. c #C1BDA3",
"$. c #C6B1A9",
"%. c #E5B6A1",
"&. c #EBB2A0",
"*. c #CEDF82",
"=. c #D0DF83",
"-. c #D3CF91",
";. c #D5D39D",
":. c #D2E185",
">. c #D6E38A",
",. c #D8E58D",
"<. c #DCE792",
"1. c #DDE893",
"2. c #EDE883",
"3. c #C4C3A3",
"4. c #CBC9A5",
"5. c #C4C2AB",
"6. c #CBCAAB",
"7. c #DBDCAA",
"8. c #C8C6B9",
"9. c #E7C7A6",
"0. c #EFC8A6",
"q. c #E5E6AF",
"w. c #F0EFAF",
"e. c #F5F5A4",
"r. c #E3E3B2",
"t. c #E7E8B0",
"y. c #EBECB2",
"u. c #EAE8BB",
"i. c #F2EEB0",
"p. c #FDEABC",
"a. c #EFF0B2",
"s. c #F2F3B3",
"d. c #F5F8B4",
"f. c #FAFBB6",
"g. c #F3F4B9",
"h. c #FCFFB8",
"j. c #AE9FC6",
"k. c #DED7CB",
"l. c #DFD9CA",
"z. c #D4CAD3",
"x. c #D2C6DA",
"c. c #D3C9D8",
"v. c #DCD2DE",
"b. c #E7E4C1",
"n. c #E4E0CF",
"m. c #FFEEC0",
"M. c #EAE1DF",
"N. c #F6F1D9",
/* pixels */
"h h h h h h h h h h h h h h h h h h h h h h h h h h h h h h h h h h h h h h h h h h h h h h h h h h h h h h h h h h h h h h h h ",
"h h h h h h h h h h h h h h h h h h h h h h h h h h h h h h h h h h h h h h h h h h h h h h h h h h h h h h h h h h h h h h h h ",
"h h h h h h h h h h h h h h h h h h h h h h h h h h h h h h h h h h h h h h h h h h h h h h h h h h h h h h h h h h h h h h h h ",
"h h h h h h h h h h h h h h h h h h h h h h h h h h h h h h h h h h h h h h h h h h h h h h h h h h h h h h h h h h h h h h h h ",
"h h h h h h h h h h h h h h h h h h h h h h h h h h h g g h h h g g h h h h h h h h h h h h h h h h h h h h h h h h h h h h h h ",
"h h h h h h h h h h h h h h h h h h h h h h h h h h f a a g h h a a d h h h h h h h h h h h h h h h h h h h h h h h h h h h h h ",
"h h h h h h h h h h h h h h h h h h h h h h h h h h d 6 6 f h g 6 6 a g h h h h h h h h h h h h h h h h h h h h h h h h h h h h ",
"h h g f f g h h g f g h h h h h h h h h h h h h h h f 6 6 a f d 6 6 a g h h h h h h h h h h h h h h h h h h h h h h h h h h h h ",
"h h d 6 6 f h h a 6 a g h h h h h h h h h h h h h h h g d 6 6 6 a f g h h h h h h h h h h h h h h h h h h h h h h h h h h h h h ",
"h h d 6 6 d g f 6 6 a g h h h h h h h h h h h h h h h h g a 5 6 f h h h h h h h h h h h h h h h h h h h h h h h h h h h h h h h ",
"h h f a 6 a a a 6 a d h h h h h h h h h h h h h h h h h h d a a g h h h h h h h h h h h h h h h h h h h h h h h h h h h h h h h ",
"h h h h f 6 6 6 d g h h h h h h h h h h h h h h h h h h h h g g h h h h h h h h h h h h h h h h h h h h h h h h h h h h h h h h ",
"h h h h h a 6 6 g h h h h h h h h h h h h h h h h h h h h h h h h h h h h h h h h h h h h h h h h h h h h h h h h h h h h h h h ",
"h h h h h f d d h h h h h h h h h h h h h h h h h h h h h h h h h h h h h h h h h h h h h h h h h h h h h h h h h h h h h h h h ",
"h h h h h h h h h h h h h h h h h h h h h h h h h h h h h h h h h h h h h h h h h h h h h h h h h h h h h h h h h h h h h h h h ",
"h h h h h h h h h h h h h h h h h h h h h h h h h h h h h h h h h h h h h h h h h h h h h h h h h h h h h h h h h h h h h h h h ",
"h h h h h h h h h h h h h h h h h h h h h h h h h h h h h h h h h h h h h h h h h h h h h h h h h h h h h h h h h h h h h h h h ",
"h h h h h h h h h h h h h h h h h h h h h h h h h h h h h h h h h h h h h h h h h h h h h h h h h h h h h h h h h h h h h h h h ",
"h h h h h h h h h h h h h h h h h h h h h h h h h h h h h h h h h h h h h h h h h h h h h h h h h h h h h h h h h h h h h h h h ",
"h h h h h h h h h h h h h h h h h h h h h h h h h h h h h h h h h h h h h h h h h h h h h h h h h h h h h h h h h h h h h h h h ",
"h h h h h h h h h h h h h h h h h h h h h h h h h j k k k h h h h h h k k k j h h h h h h h h h h h h h h h h h h h h h h h h h ",
"h h h h h h h h h h h h h h h h h h h h h h h h l 8 - ; - y l h h l y - ; - 8 l h h h h h h h h h h h h h h h h h h h h h h h h ",
"h h h h h h h h h h h h h h h h h h h h h h h h e ! ( / ^ 0 u k k u 0 ^ / ^ ! e h h h h h h h h h h h h h h h h h h h h h h h h ",
"h h h h h h h h h h h h h h h h h h h h h h j z O #.h.s.h.^ * h h * ^ h.s.h.#.O z j h h h h h h f f g h h g f f h h h h h h h h ",
"h h h h h h h h h h h h h h h h h h h h h h j z $ ` &.%.s.)   # #   ) s.%.&.` $ z j h h h h h f 6 6 d h h d 6 6 f h h h h h h h ",
"h h h h h h h h h h h h h h h h h h h h h h j z % E O.+.i.8.} | | } 8.i.+.O.E % z j h h h h h f 6 6 a g g a 6 6 f h h h h h h h ",
"h h h h h h h h h h h h h h h h h h h h h h j z $ ] 0.9.w.n.v.v.v.v.n.w.9.0.] $ z j h h h h h g a 6 a a a a 6 a g h h h h h h h ",
"h h h h h h h h h h h h h h h h h h h h h h j z @ 3.h.s.s.l.x.c.c.x.l.s.s.h.3.@ z j h h h h h h h g a 6 6 a g h h h h h h h h h ",
"h h h h h h h h h h h h h h h h h h h h h h k g @ #.f.s.s.k.x.c.c.x.k.s.s.f.#.@ g k h h h h h h j h d 6 6 d h j h h h h h h h h ",
"h h h h h h h h h h h h h h h h h h h h h k t , o #.h.f.s.u.b.b.b.b.u.s.f.h.#.o , t k h h h h h h h g d d g h h h h h h h h h h ",
"h h h h h h h h h h h h h h h h h h h h h j y > o 3.t...y.s.s.s.s.s.s.y...t.3.o > y j h h h h h h h h h h h h h h h h h h h h h ",
"h h h h h h h h h h h h h h h h h h h h h h h i @ 4.4.J q.d.s.s.s.s.d.q.J 4.4.@ i h h h h h h h h h h h h h h h h h h h h h h h ",
"h h h h h h h h h h h h h h h h h h h h h k r + X 3.d.q.a.s.s.s.s.s.s.a.q.d.3.X + r k h h h h h h h h h h h h h h h h h h h h h ",
"h h h h h h h h h h h h h h h h h h h h h j z 9 . $.m.p.f.f.f.f.f.f.d.f.p.m.$.X 9 z j h h h h h h h h h h h h h h h h h h h h h ",
"h h h h h h h h h h h h h h h h h h h h h h j h 4 ' @. .5.6.5.5.5.5.6.5. .@._ 2 h j h h h h h h h h h h h h h h h h h h h h h h ",
"h h h h h h h h h h h h h h h h h h h h h h h h h 1 S H K P L U T I P K H S < p f h h h h h h h h h h h h h h h h h h h h h h h ",
"h h h h h h h h h h h h h h h h h h h h h h j z * } l.7.Y A Q C y.{ A Y 7.l.} & 7 j h h h h h h h h h h h h h h h h h h h h h h ",
"h h h h h h h h h h h h h h h h h h h h h h j z X j.N.f.6.5.-.n Z ;.5.6.f.N.j.X 7 j h h h h h h h h h h h h h h h h h h h h h h ",
"h h h h h h h h h h h h h h h h h h h h h h h f 3 [ X.4.d.h.e.2.Z e.h.d.4.X.[ 3 f h h h h h h h h h h h h h h h h h h h h h h h ",
"h h h h h h h h h h h h h h h h h h h h h h h h l 3   G r.g.y.r.r.y.g.r.G   3 b h h h h h h h h h h h h h h h h h h h h h h h h ",
"h h h h h h h h h h h h h h h h h h h h h h h h h h 9 F z.M.o.D D o.M.z.F 9 h h h h h h h h h h h h h h h h h h h h h h h h h h ",
"h h h h h h h h h h h h h h h h h h h h h h h h h j f q W R ~ w w ~ R W q f k h h h h h h h h h h h h h h h h h h h h h h h h h ",
"h h h h h h h h h h h h h h h h h h h h h h h h h h k h : = 8 l l 8 = : h k h h h h h h h h h h h h h h h h h h h h h h h h h h ",
"h h h h h h h h h h h h h h h h h h h h h h h h h h h h j k j h h j k j h h h h h h h h h h h h h h h h h h h h h h h h h h h h ",
"h h h h h h h h h h h h h h h h h h h h h h h h h h h h h h h h h h h h h h h h h h h h h h h h h h h h h h h h h h h h h h h h ",
"h h h h h h h h h h h h h h h h h h h h h h h h h h h h h h h h h h h h h h h h h h h h h h h h h h h h h h h h h h h h h h h h ",
"h h h h h h h h h h h h h h h h h h h h h h h h h h h h h h h h h h h h h h h h h h h h h h h h h h h h h h h h h h h h h h h h ",
"h h h h h h h h h h h h h h h h h h h h h h h h h h h h h h h h h h h h h h h h h h h h h h h h h h h h h h h h h h h h h h h h ",
"h h h h h h h h s s h h h h s s h h h h h h h h h h h h h h h h h h h h h h h h h h h h h h h h h h h h h h h h h h h h h h h h ",
"h h h h h h h h x x x h h x x x h h h h h h h h h h h h h h h h h h h h h h h h h h h h h h h h h h h h h h h h h h h h h h h h ",
"h h h h h h h v B V m h h m V B v h h h h h h h h h h h h h h h h h h h h h h h h h h h h h h h h h h h h h h h h h h h h h h h ",
"h h h h h s h M >.1.V x x V 1.>.M h s h h h h h h h h h h h h h h h h h h h h h h h h h h h h h h h h h h h h h h h h h h h h h ",
"h h h h h s h M >.1.:.m m :.1.>.M h s h h h h h h h h h h h h h h h h h h h h h h h h h h h h h h h h h h h h h h h h h h h h h ",
"h h h h h h h c M V :.:.:.:.V M c h h h h h h h h h h h h h h h h h h h h h s s h h h s s h h h h h h h h h h h h h h h h h h h ",
"h h h h h h h h h c V 1.1.V c h h h h h h h h h h h h h h h h h h h h h h h h h h h h h h h h h h h h h h h h h h h h h h h h h ",
"h h h h h h h h s h M >.>.M h s h h h h h h h h h h h h h h h h h h h h x v M v x h c M M v h h h h h h h h h h h h h h h h h h ",
"h h h h h h h h h h c M M c h h h h h h h h h h h h h h h h h h h h h h c *.,.:.c h m >.>.B x s h h h h h h h h h h h h h h h h ",
"h h h h h h h h h h h h h h h h h h h h h h h h h h h h h h h h h h h h c :.1.,.m c V 1.1.V x s h h h h h h h h h h h h h h h h ",
"h h h h h h h h h h h s s h h h h h h h h h h h h h h h h h h h h h h h c B :.>.*.V =.>.*.M x h h h h h h h h h h h h h h h h h ",
"h h h h h h h h h h h h h h h h h h h h h h h h h h h h h h h h h h h h h h v V ,.1.:.M c h h h h h h h h h h h h h h h h h h h ",
"h h h h h h h h h h h h h h h h h h h h h h h h h h h h h h h h h h h h h s h v >.<.*.c s s h h h h h h h h h h h h h h h h h h ",
"h h h h h h h h h h h h h h h h h h h h h h h h h h h h h h h h h h h h h s h c N V M h s h h h h h h h h h h h h h h h h h h h ",
"h h h h h h h h h h h h h h h h h h h h h h h h h h h h h h h h h h h h h h h h x x x h h h h h h h h h h h h h h h h h h h h h ",
"h h h h h h h h h h h h h h h h h h h h h h h h h h h h h h h h h h h h h h h h s s s h h h h h h h h h h h h h h h h h h h h h "
};
