/* XPM */
static char *b32a797e3a624d0ecd8440640aa2884bL2ptkAso1b4Kj1YG[] = {
/* columns rows colors chars-per-pixel */
"48 48 9 1 ",
"  c None",
". c #5C4E92",
"X c #F3F2C0",
"o c #E8B5AC",
"O c #DDD5DE",
"+ c #F3D8C5",
"@ c #766DAA",
"# c #EAE178",
"$ c white",
/* pixels */
"                                                ",
"                                                ",
"                                                ",
"                                                ",
"                                                ",
"                                                ",
"                                                ",
"                                                ",
"                                                ",
"                                                ",
"                                                ",
"                                                ",
"                                                ",
"                                                ",
"                                                ",
"                                                ",
"                   ...    ...                   ",
"                  .XXX.  .XXX.                  ",
"                  .ooX....Xoo.                  ",
"                  .ooXOOOOXoo.                  ",
"                  .XXXOOOOXXX.                  ",
"                  .XXXOOOOXXX.                  ",
"                 ..XXXXXXXXXX..                 ",
"                  .X.XXXXXX.X.                  ",
"                 ..XXXXXXXXXX..                 ",
"                  .++XXXXXX++.                  ",
"                   ..@@@@@@..                   ",
"                  .OX@@#X@@XO.                  ",
"                  .OXXX##XXXO.                  ",
"                   ..XXXXXX..                   ",
"                    .OO..OO.                    ",
"                     ..  ..                     ",
"                                                ",
"                                                ",
"                                                ",
"                                                ",
"                                                ",
"                                                ",
"                                                ",
"                                                ",
"                                                ",
"                                                ",
"                                                ",
"                                                ",
"                                                ",
"                                                ",
"                                                ",
"                                                "
};
