/* XPM */
static char *_d4e43962ef54702c58c9b746a0c22bdcHyL764aDA0s2KDX[] = {
/* columns rows colors chars-per-pixel */
"64 64 219 2 ",
"   c #641B2D",
".  c #69252D",
"X  c #642938",
"o  c #6E3539",
"O  c #723F3A",
"+  c #75443C",
"@  c #75493D",
"#  c #794A3D",
"$  c #693641",
"%  c #663D4C",
"&  c #763F40",
"*  c #744544",
"=  c #754A45",
"-  c #774E49",
";  c #7A4D4A",
":  c #775145",
">  c #7A5442",
",  c #7C5D44",
"<  c #7A5449",
"1  c #7E5C4A",
"2  c #6B4855",
"3  c #6B4955",
"4  c #7F6643",
"5  c #83464B",
"6  c #825B4B",
"7  c #89584B",
"8  c #874E51",
"9  c #885C58",
"0  c #935C5D",
"q  c #876B46",
"w  c #896E46",
"e  c #836A49",
"r  c #8A764D",
"t  c #8A794C",
"y  c #8F6153",
"u  c #856F50",
"i  c #8D6857",
"p  c #8A645A",
"a  c #916455",
"s  c #926D56",
"d  c #966758",
"f  c #956C5C",
"g  c #9C6C5A",
"h  c #877150",
"j  c #897253",
"k  c #947256",
"l  c #97765B",
"z  c #A2715E",
"x  c #A27A5E",
"c  c #986762",
"v  c #916E61",
"b  c #8F7060",
"n  c #967365",
"m  c #977667",
"M  c #9B7E65",
"N  c #9C7469",
"B  c #9B7A6A",
"V  c #A26B63",
"C  c #A46F69",
"Z  c #A57561",
"A  c #AE7A64",
"S  c #A6716B",
"D  c #A57A68",
"F  c #A97F70",
"G  c #B37A72",
"H  c #99904D",
"J  c #938052",
"K  c #938C55",
"L  c #999454",
"P  c #999556",
"I  c #999C5A",
"U  c #A19D57",
"Y  c #A19C59",
"T  c #8FA54D",
"R  c #9AA64C",
"E  c #97A150",
"W  c #9AA951",
"Q  c #9CA35C",
"!  c #9FAB5D",
"~  c #96B952",
"^  c #9CBD54",
"/  c #A4AC56",
"(  c #A3A35B",
")  c #A4AD59",
"_  c #A5B256",
"`  c #A6B856",
"'  c #A3B45C",
"]  c #A9B658",
"[  c #A4BA5E",
"{  c #AABC5B",
"}  c #9C8266",
"|  c #9B8578",
" . c #A4816F",
".. c #AB8569",
"X. c #B78A68",
"o. c #B68F69",
"O. c #A59A69",
"+. c #B99269",
"@. c #A58371",
"#. c #AA8372",
"$. c #A88B74",
"%. c #B48B78",
"&. c #AE957B",
"*. c #BF9B75",
"=. c #BA917D",
"-. c #A9AE6C",
";. c #A8B667",
":. c #A5BB60",
">. c #AABD64",
",. c #ACA973",
"<. c #B2B877",
"1. c #C19669",
"2. c #C39A6D",
"3. c #C69D71",
"4. c #C89F72",
"5. c #CEA26C",
"6. c #D0A66E",
"7. c #CBA677",
"8. c #CDA574",
"9. c #CCA97F",
"0. c #D0A771",
"q. c #D3AA75",
"w. c #D9AE74",
"e. c #D4AD79",
"r. c #D5B17F",
"t. c #DAB27B",
"y. c #E1BA7F",
"u. c #A2C256",
"i. c #ABC655",
"p. c #AFCB57",
"a. c #A7C459",
"s. c #AAC55B",
"d. c #AEC95B",
"f. c #B3CD5D",
"g. c #B7D05F",
"h. c #ABC162",
"j. c #AFC46B",
"k. c #B5CE61",
"l. c #B3C968",
"z. c #BBD268",
"x. c #B4C473",
"c. c #B9C57D",
"v. c #C0D66F",
"b. c #C2D772",
"n. c #C8DA7C",
"m. c #BF8680",
"M. c #BFA287",
"N. c #BABD82",
"B. c #C68A85",
"V. c #D48E8E",
"C. c #CD928D",
"Z. c #D1968F",
"A. c #CF9B90",
"S. c #D59290",
"D. c #D39A91",
"F. c #DC9A96",
"G. c #DD9E98",
"H. c #E19C99",
"J. c #C7A883",
"K. c #D7B281",
"L. c #D9B583",
"P. c #DBB987",
"I. c #DEBD8B",
"U. c #D4A294",
"Y. c #DEA09A",
"T. c #DEAB9B",
"R. c #C7B291",
"E. c #CAB494",
"W. c #CCB897",
"Q. c #D4BE9B",
"!. c #D8BE9E",
"~. c #E0BF8B",
"^. c #E4A49D",
"/. c #E2AA9E",
"(. c #D7BEA1",
"). c #E6ABA1",
"_. c #E8ABA2",
"`. c #E5B4A3",
"'. c #EAB9A7",
"]. c #F3BFAD",
"[. c #BDCB83",
"{. c #C1CC85",
"}. c #C4CF89",
"|. c #C8D687",
" X c #DFC293",
".X c #D2C19F",
"XX c #DBC49C",
"oX c #CCD593",
"OX c #E4C796",
"+X c #E4CB9D",
"@X c #D2E187",
"#X c #D6E38D",
"$X c #D9E396",
"%X c #DEE995",
"&X c #D6C4A2",
"*X c #DBC4A2",
"=X c #DCCAA5",
"-X c #DDCEA9",
";X c #DED0AC",
":X c #E2CDA4",
">X c #E8C9AB",
",X c #F4C1AE",
"<X c #E8D2A6",
"1X c #E4D3AC",
"2X c #EAD6AB",
"3X c #ECD9AE",
"4X c #F1DDAF",
"5X c #EED6B2",
"6X c #EDDCB2",
"7X c #F3DDB5",
"8X c #F7DFB9",
"9X c #EEE1B5",
"0X c #F1E1B6",
"qX c #F3E5BA",
"wX c #F9E5BB",
"eX c #F6E8BC",
"rX c #F9EBBD",
"tX c #FBEEC1",
"yX c #FDF3C3",
/* pixels */
"f.f.f.f.f.f.f.f.f.f.f.f.f.f.f.f.f.f.f.f.f.f.f.f.f.f.f.f.f.f.f.f.f.f.f.f.f.f.f.f.f.f.f.f.f.f.f.f.f.f.f.f.f.f.f.f.f.f.f.f.f.f.f.f.",
"f.f.f.f.f.f.f.f.f.f.f.f.f.f.f.f.f.f.f.f.f.f.f.f.f.f.f.f.f.f.f.f.f.f.f.f.f.f.f.f.f.f.f.f.f.f.f.f.f.f.f.f.f.f.f.f.f.f.f.f.f.f.f.f.",
"f.f.f.f.f.f.f.f.f.f.f.f.f.f.f.f.f.f.f.f.f.f.f.f.f.f.f.f.f.f.f.f.f.f.f.f.f.f.f.f.f.f.f.f.f.f.f.f.f.f.f.f.f.f.f.f.f.f.f.f.f.f.f.f.",
"f.f.f.f.f.f.f.f.f.f.f.f.f.f.f.f.f.f.f.f.f.f.f.f.f.f.f.f.f.f.f.f.f.f.f.f.f.f.f.f.f.f.f.f.f.f.f.f.f.f.f.f.f.f.f.f.f.f.f.f.f.f.f.f.",
"f.f.f.f.f.f.f.f.f.f.f.f.f.f.f.f.f.f.f.f.f.f.f.f.f.f.f.d.d.f.f.f.f.d.f.f.f.f.f.f.f.f.f.f.f.f.f.f.f.f.f.f.f.f.f.f.f.f.f.f.f.f.f.f.",
"f.f.f.f.f.f.f.f.f.f.f.f.f.f.f.f.f.f.f.f.f.f.f.f.f.f.s.u.u.d.f.f.a.u.a.f.f.f.f.f.f.f.f.f.f.f.f.f.f.f.f.f.f.f.f.f.f.f.f.f.f.f.f.f.",
"f.f.f.f.f.f.f.f.f.f.f.f.f.f.f.f.f.f.f.f.f.f.f.f.f.f.a.~ ~ s.f.d.^ ~ u.d.f.f.f.f.f.f.f.f.f.f.f.f.f.f.f.f.f.f.f.f.f.f.f.f.f.f.f.f.",
"f.f.d.s.d.f.f.f.d.s.d.f.f.f.f.f.f.f.f.f.f.f.f.f.f.f.s.^ ^ u.s.a.^ ^ a.f.f.f.f.f.f.f.f.f.f.f.f.f.f.f.f.f.f.f.f.f.f.f.f.f.f.f.f.f.",
"f.f.s.^ ^ d.f.f.u.^ a.f.f.f.f.f.f.f.f.f.f.f.f.f.f.f.f.d.a.u.^ ^ a.d.d.f.f.f.f.f.f.f.f.f.f.f.f.f.f.f.f.f.f.f.f.f.f.f.f.f.f.f.f.f.",
"f.f.a.~ ~ a.f.d.^ ~ u.d.f.f.f.f.f.f.f.f.f.f.f.f.f.f.f.f.f.u.~ ^ d.f.f.f.f.f.f.f.f.f.f.f.f.f.f.f.f.f.f.f.f.f.f.f.f.f.f.f.f.f.f.f.",
"f.f.s.u.^ u.a.u.u.u.s.f.f.f.f.f.f.f.f.f.f.f.f.f.f.f.f.g.f.s.u.a.d.f.f.f.f.f.f.f.f.f.f.f.f.f.f.f.f.f.f.f.f.f.f.f.f.f.f.f.f.f.f.f.",
"f.f.f.f.s.^ ~ ^ a.f.f.f.f.f.f.f.f.f.f.f.f.f.f.f.f.f.f.f.f.f.d.f.f.f.f.f.f.f.f.f.f.f.f.f.f.f.f.f.f.f.f.f.f.f.f.f.f.f.f.f.f.f.f.f.",
"f.f.f.g.f.u.~ ^ d.f.g.f.f.f.f.f.f.f.f.f.f.f.f.f.f.f.f.f.f.f.f.f.f.f.f.f.f.f.f.f.f.f.f.f.f.f.f.f.f.f.f.f.f.f.f.f.f.f.f.f.f.f.f.f.",
"f.f.f.f.f.s.a.s.d.f.f.f.f.f.f.f.f.f.f.f.f.f.f.f.f.f.f.f.f.f.f.f.f.f.f.f.f.f.f.f.f.f.f.f.f.f.f.f.f.f.f.f.f.f.f.f.f.f.f.f.f.f.f.f.",
"f.f.f.f.f.f.f.f.f.f.f.f.f.f.f.f.f.f.f.f.f.f.f.f.f.f.f.f.f.f.f.f.f.f.f.f.f.f.f.f.f.f.f.f.f.f.f.f.f.f.f.f.f.f.f.f.f.f.f.f.f.f.f.f.",
"f.f.f.f.f.f.f.f.f.f.f.f.f.f.f.f.f.f.f.f.f.f.f.f.f.f.f.f.f.f.f.f.f.f.f.f.f.f.f.f.f.f.f.f.f.f.f.f.f.f.f.f.f.f.f.f.f.f.f.f.f.f.f.f.",
"f.f.f.f.f.f.f.f.f.f.f.f.f.f.f.f.f.f.f.f.f.f.f.f.f.f.f.f.f.f.f.f.f.f.f.f.f.f.f.f.f.f.f.f.f.f.f.f.f.f.f.f.f.f.f.f.f.f.f.f.f.f.f.f.",
"f.f.f.f.f.f.f.f.f.f.f.f.f.f.f.f.f.f.f.f.f.f.f.f.f.f.f.f.f.f.f.f.f.f.f.f.f.f.f.f.f.f.f.f.f.f.f.f.f.f.f.f.f.f.f.f.f.f.f.f.f.f.f.f.",
"f.f.f.f.f.f.f.f.f.f.f.f.f.f.f.f.f.f.f.f.f.f.f.f.f.f.f.f.f.f.f.f.f.f.f.f.f.f.f.f.f.f.f.f.f.f.f.f.f.f.f.f.f.f.f.f.f.f.f.f.f.f.f.f.",
"f.f.f.f.f.f.f.f.f.f.f.f.f.f.f.f.f.f.f.f.f.f.f.f.f.f.f.f.f.f.f.f.f.f.f.f.f.f.f.f.f.f.f.f.f.f.f.f.f.f.f.f.f.f.f.f.f.f.f.f.f.f.f.f.",
"f.f.f.f.f.f.f.f.f.f.f.f.f.f.f.f.f.f.f.f.f.f.f.f.f.f.f.f.f.f.f.f.f.f.f.f.f.f.f.f.f.f.f.f.f.f.f.f.f.f.f.f.f.f.f.f.f.f.f.f.f.f.f.f.",
"f.f.f.f.f.f.f.f.f.f.f.f.f.f.f.f.f.f.f.f.f.f.f.f.f.f.f.f.f.f.f.f.f.f.f.f.f.f.f.f.f.f.f.f.f.f.f.f.f.f.f.f.f.f.f.f.f.f.f.f.f.f.f.f.",
"f.f.f.f.f.f.f.f.f.f.f.f.f.f.f.f.f.f.f.f.f.f.f.f.f.f.f.f.f.f.f.f.f.f.f.f.f.f.f.f.f.f.f.f.f.f.f.f.f.f.f.f.f.f.f.f.f.f.f.f.f.f.f.f.",
"f.f.f.f.f.f.f.f.f.f.f.f.f.f.f.f.f.f.f.f.f.f.f.f.f.f.f.f.f.f.f.f.f.f.f.f.` / ) ] f.f.f.f.] ) / _ s.s.d.f.f.d.s.d.f.f.f.f.f.f.f.f.",
"f.f.f.f.f.f.f.f.f.f.f.f.f.f.f.f.f.f.f.f.f.f.f.f.f.f.f.f.f.f.f.f.f.f.f.] q = 6 J ] f.f.] J 6 = q W ^ a.f.f.a.^ u.d.f.f.f.f.f.f.f.",
"f.f.f.f.f.f.f.f.f.f.f.f.f.f.f.f.f.f.f.f.f.f.f.f.f.f.f.f.f.f.f.f.f.f.] ( } %.V 6 ) f.f.' 6 V %.} I T ^ f.f.u.~ ^ s.f.f.f.f.f.f.f.",
"f.f.f.f.f.f.f.f.f.f.f.f.f.f.f.f.f.f.f.f.f.f.f.f.f.f.f.f.f.f.f.f.f.] w } Q.*X#.> ] f.f.] > #.*XQ.} 4 W a.a.u.^ a.d.f.f.f.f.f.f.f.",
"f.f.f.f.f.f.f.f.f.f.f.f.f.f.f.f.f.f.f.f.f.f.f.f.f.f.f.f.] / / ] f./ + =.0X5X#.+ L ] ] L + #.5X0X=.O E ~ ~ ` _ / / ] f.f.f.f.f.f.",
"f.f.f.f.f.f.f.f.f.f.f.f.f.f.f.f.f.f.f.f.f.f.f.f.f.f.f.] q + + w f.{ > %.5X1XB X : 1 1 : X B 1X2XD . R ^ ~ _ w + + q ] f.f.f.f.f.",
"f.f.f.f.f.f.f.f.f.f.f.f.f.f.f.f.f.f.f.f.f.f.f.f.f.f.] ( M =.=.M / H + D =X:X..7 g z z g 7 $.1X3XM.l I R W ( M =.=.M ( ] f.f.f.f.",
"f.f.f.f.f.f.f.f.f.f.f.f.f.f.f.f.f.f.f.f.f.f.f.f.f.{ w M E.3X5XE.l     y 7.P.7.2.4.4.4.2.1.J.2X0X5XR.l . # } W.2X2XE.M q ] f.f.f.",
"f.f.f.f.f.f.f.f.f.f.f.f.f.f.f.f.f.f.] / ) ) ) ) ] K O %.2XyXyX3XM.N m ..2.q.t.t.t.t.t.t.q.P.2XeXyX5XJ.f 5 @.1XyXyX2X=.+ / f.f.f.",
"f.f.f.f.f.f.f.f.f.f.f.f.f.f.f.f.f.{ r : 1 1 1 1 > @ o  .:XtXeX6X1X=X-XXXK.0.q.e.t.t.e.q.5.L.<XeXrXqX5XE.p n =XyXyX1X#.# / f.f.f.",
"f.f.f.f.f.f.f.f.f.f.f.f.f.f.] ) ' U s A z g g Z #.N * n !.8X5X7XqXrXqX<XL.0.q.8.3.3.8.e.r. X3X6X=X-XrX1Xv p !.8X8X*X#.> / f.f.f.",
"f.f.f.f.f.f.f.f.f.f.f.f.f.{ r : - k o.8.4.4.1.9.:XW.6 8 U.].'.,XwX0XOXK.e.q.t.3.i i +.L.+X6XqX=X| | 1X:Xp 5 U.,X,XT.G > / f.f.f.",
"f.f.f.f.f.f.f.f.f.f.f.f.{ U k A g ..8.t.t.t.q.~.wX5X&.N B.C.B.A.(.XXe.5.0.w.t.+.% 2 *.OX6XeXrX.X2 2 =X3X&.N B.S.F.m.f t ] f.f.f.",
"f.f.f.f.f.f.f.f.f.f.f.] r k o.8.4.8.q.e.e.q.5.L.2X0X1XE.N 5 8 9 9 D 2.q.0.0.w.o.X 2 W.0X0X0XrX.X2 2 &XqX1XE.@.0 S f U { f.f.f.f.",
"f.f.f.f.f.f.f.f.f.f.f.) < A 8.y.t.t.q.q.q.e.r. X2XqXtX1X&.p b v p D 9.I.P.P.I.J.m | ;XrX0X0XeX=X| | =XrXyX1XB . @ t { f.f.f.f.f.",
"f.f.f.f.f.f.f.f.f.f.f.] 1 Z 4.t.e.q.0.5.5.r.+X3X6X0X0X6X-X&X*X*X*X=X<X2X2X2X2X<X*X-X6XqX0X0XqX6X-X-X6XeXtX:X .+ H { f.f.f.f.f.f.",
"f.f.f.f.f.f.f.f.f.f.{ L < g 2.t.q.e.L.P.K. X3XqX0X0X0X0XqXrXeXeXeXqXqXqX0X0X0XqXrXqX5X2X5X5X2X5X8X8X5X5X7X*XF > ] f.f.f.f.f.f.f.",
"f.f.f.f.f.f.f.f.f.{ r - * d 1.q.5.r.+X3X2X2X6X0X0X0X0XqXqXqX0X0X0X0XeXeX0X0X0X0XqX7X'.).`.`.`.`.`.`.`.`.'.U.S , _ f.f.f.f.f.f.f.",
"f.f.f.f.f.f.f.f.] Y k Z ; f 7.~.L. X3XqXqX0X0X0X0X6X2X2X2X2X6X0X0X5X=X=X6X0X0X7X5X>X/.F.F.F.G.^.^.G.F.F.^.Z.C , / f.f.f.f.f.f.f.",
"f.f.f.f.f.f.f.] e i 2.2.7 v Q.4X2X2X6X0X0X0X0X0XqX3X XK.K. X3XeXeX=XB  .1XtXqX5X'.)./.G.V.V.G.^.^.G.V.V.^.D.C , / f.f.f.f.f.f.f.",
"f.f.f.f.f.f.{ U i X.8.+.7 n =XtXqX0X0X0X0X0X0X6X3X+Xr.5.5.K.+X6XqX=X .m R.1X9X5X`.H.^.Y.V.V.Y././.Y.V.S.^.D.S , / f.f.f.f.f.f.f.",
"f.f.f.f.f.] r k 2.8...a & B =XeX0X0X0X0X0X0X0X2XI.e.q.q.q.q.e.I.3X6X1XR.n @.1XwX'.^.).).^.^.)._._.).^.^._.G.G > / f.f.f.f.f.f.f.",
"f.f.f.f.f./ < A 8.2.k * o B =XeX0X0X0X0X0X0X0X2XI.e.q.q.q.q.e.I.2XqXtX1X@.B W.*XU.C.C.Z.D.D.D.D.D.D.D.D.Y.B.f t ] f.f.f.f.f.f.f.",
"f.f.f.f.f.) 6 V A k / L @ @.:XtXqX0X0X0X0X0X0X6X3X+Xr.5.5.r.+X3X6X0X0X6X1XW.$.p 0 0 c c C S C C C C C S G f U { f.f.f.f.f.f.f.f.",
"f.f.f.f.f.] t 6 < r f.{ >  .XX4X2X2X2X2X2X2X6X0XqX6X XK.K. X6XqX0X0X0X0XwXXXD # 6 6 - * > , , , , , , , > t { f.f.f.f.f.f.f.f.f.",
"f.f.f.f.f.f.] / / ` f.' 1 Z 9.I.P.P.P.L.K. X3XqXqX0X6X3X3X6X0XqX0XqXqX6XOXe.8.1.2.o.d < L ] _ / / / / / / ] f.f.f.f.f.f.f.f.f.f.",
"f.f.f.f.f.f.f.f.k.k.f.) 1 z 2.w.0.0.0.0.5.K.:X3X2X2X3X3X3X3X2X2X2X2X3X+Xr.6.w.t.t.8.z 1 ] f.f.f.f.f.f.f.f.f.f.f.f.f.f.f.f.f.f.f.",
"f.f.f.f.f.f.f.z.n.n.v./ < A 8.t.w.q.q.q.w.t.P.I.I.I.~.I.P.P.L.P.I.I.I.P.t.w.e.e.t.4.z 1 ' f.f.f.f.f.f.f.f.f.f.f.f.f.f.f.f.f.f.f.",
"f.f.f.f.f.f.f.b.#X%Xn.' h s o.8.q.e.e.8.4.2.1.1.1.1.1.1.5.0.0.5.1.1.1.1.2.4.8.e.t.4.g 1 ) f.f.f.f.f.f.f.f.f.f.f.f.f.f.f.f.f.f.f.",
"f.f.f.f.f.f.f.b.#X%X|.>.-.O.f ..8.t.t.4.x y g g g g y x 2.t.t.2.x y g g y x 4.t.t.4.g 1 Q d.[ s.f.f.f.f.f.f.f.f.f.f.f.f.f.f.f.f.",
"f.f.f.f.f.f.f.z.b.n.{.[.@X<.- g 4.t.t.2.a $ : 1 1 - $ a 2.t.t.2.a $ : : $ a 2.t.t.4.z < I s.:.:.s.f.f.f.f.f.f.f.f.f.f.f.f.f.f.f.",
"f.f.f.f.f.f.f.f.s.>.c.oX$X,.- Z 8.y.y.8.Z = K ! ! K = Z 8.y.y.8.Z = K K = Z 8.y.y.8.A - I h.:.[ [ s.f.f.f.f.f.f.f.f.f.f.f.f.f.f.",
"f.f.f.f.f.f.f.d.` ' x.}.|.-.u s o.8.8.o.s h ) f.f.) h s o.8.8.o.s h ' ' h s o.8.8.o.s j -.j.:.[ ' :.f.f.f.f.f.f.f.f.f.f.f.f.f.f.",
"f.f.f.f.f.f.f.d.[ ' >.x.x.;.! L s A A s L ! [ :.:.:.! L s A A s L ) ' ' ;.O.f A A s O.N.{.x.:.' ' :.f.f.f.f.f.f.f.f.f.f.f.f.f.f.",
"f.f.f.f.f.f.f.f.s.[ [ [ [ [ f.! u - - u ! f.:.:.:.:.f.! u - - u ! f.[ [ z.<.m ; - u <.%XoXc.:.' [ s.f.f.f.f.f.f.f.f.f.f.f.f.f.f.",
"f.f.f.f.f.f.f.f.f.s.[ ' ' ' :.:.Q I I Q ' :.[ [ [ [ :.' Q I I Q ' :.[ [ >.<.<.,.,.,.c.{.[.<.:.[ s.f.f.f.f.f.f.f.f.f.f.f.f.f.f.f.",
"f.f.f.f.f.f.f.f.f.f.s.[ { { { { s.f.f.s.{ { { [ [ { { { s.f.f.s.{ { { { >.h.l.n.#X$X}.x.h.>.:.s.f.f.f.f.f.f.f.f.f.f.f.f.f.f.f.f.",
"f.f.f.f.f.f.f.f.f.f.f.f.f.f.d.f.f.f.f.f.f.f.f.f.f.f.f.f.f.f.f.f.f.d.f.f.d.i.i.z.#X%X|.k.i.i.f.f.f.f.f.f.f.f.f.f.f.f.f.f.f.f.f.f.",
"f.f.f.f.f.f.f.f.f.f.f.f.f.f.f.f.f.f.f.f.f.f.f.f.f.f.f.f.f.f.f.f.f.f.f.f.f.f.f.z.n.n.b.f.p.f.f.f.f.f.f.f.f.f.f.f.f.f.f.f.f.f.f.f.",
"f.f.f.f.f.f.f.f.f.f.f.f.f.f.f.f.f.f.f.f.f.f.f.f.f.f.f.f.f.f.f.f.f.f.f.f.f.f.f.f.k.k.f.f.f.f.f.f.f.f.f.f.f.f.f.f.f.f.f.f.f.f.f.f.",
"f.f.f.f.f.f.f.f.f.f.f.f.f.f.f.f.f.f.f.f.f.f.f.f.f.f.f.f.f.f.f.f.f.f.f.f.f.f.f.f.f.p.f.f.f.f.f.f.f.f.f.f.f.f.f.f.f.f.f.f.f.f.f.f."
};
