/* XPM */
static char *c555ad10b2cf4709c161953c93af3383wmGKxCEhnCVjcWd0[] = {
/* columns rows colors chars-per-pixel */
"64 64 226 2 ",
"   c #5D374D",
".  c #663C4C",
"X  c #693D4C",
"o  c #6D434D",
"O  c #654A4F",
"+  c #724446",
"@  c #72464B",
"#  c #76494B",
"$  c #7C4E4B",
"%  c #75554E",
"&  c #7E524C",
"*  c #6A4651",
"=  c #6D4951",
"-  c #754D50",
";  c #794E52",
":  c #6A5351",
">  c #6F5857",
",  c #715B52",
"<  c #69724D",
"1  c #766153",
"2  c #776B52",
"3  c #786D53",
"4  c #844C4D",
"5  c #8C5A46",
"6  c #81534C",
"7  c #84594F",
"8  c #8C5C4B",
"9  c #825651",
"0  c #8A5452",
"q  c #875A51",
"w  c #8A5E52",
"e  c #85624F",
"r  c #8F614F",
"t  c #97664C",
"y  c #9D6A4B",
"u  c #877B4B",
"i  c #997A4B",
"p  c #856350",
"a  c #8D6354",
"s  c #886A52",
"d  c #916555",
"f  c #946A56",
"g  c #9A6E55",
"h  c #99695A",
"j  c #8B7457",
"k  c #947A54",
"l  c #9B7956",
"z  c #A16B4D",
"x  c #A5744E",
"c  c #A57A4C",
"v  c #A56D5B",
"b  c #A47454",
"n  c #A77954",
"m  c #AB7C53",
"M  c #A57558",
"N  c #A47B5B",
"B  c #AB7D59",
"V  c #B07F51",
"C  c #A87562",
"Z  c #AC7C63",
"A  c #B47E66",
"S  c #6D8A48",
"D  c #6F8B4F",
"F  c #7B834B",
"G  c #649444",
"H  c #6A9647",
"J  c #6A9C44",
"K  c #6C9648",
"L  c #6D9948",
"P  c #739D4A",
"I  c #78984A",
"U  c #6D8A51",
"Y  c #7D9751",
"T  c #7F9D51",
"R  c #70A046",
"E  c #76A249",
"W  c #79A24A",
"Q  c #7CAB49",
"!  c #898948",
"~  c #958445",
"^  c #9F8F4E",
"/  c #809348",
"(  c #949D4E",
")  c #998B56",
"_  c #859B55",
"`  c #919455",
"'  c #929D5A",
"]  c #9A9858",
"[  c #AF8055",
"{  c #A3865C",
"}  c #AC805C",
"|  c #B28256",
" . c #B88856",
".. c #B48559",
"X. c #B8855B",
"o. c #B68959",
"O. c #B98B5A",
"+. c #A69758",
"@. c #BE905B",
"#. c #B5995C",
"$. c #85A54C",
"%. c #84AB4D",
"&. c #88AD4F",
"*. c #97A44C",
"=. c #8DB34F",
"-. c #85A452",
";. c #86A953",
":. c #89AF50",
">. c #8FA058",
",. c #95A252",
"<. c #9EA555",
"1. c #9CA953",
"2. c #94A25B",
"3. c #9AA55B",
"4. c #9CAA5B",
"5. c #8DB350",
"6. c #92B552",
"7. c #9AB456",
"8. c #95BA52",
"9. c #9BBC54",
"0. c #9DB658",
"q. c #9EB95A",
"w. c #A1A557",
"e. c #A1A856",
"r. c #A4A75B",
"t. c #A5A95A",
"y. c #A2B854",
"u. c #A3B45B",
"i. c #ABB65A",
"p. c #A3BB5C",
"a. c #ABBD5A",
"s. c #B4BC5A",
"d. c #AD8364",
"f. c #B28664",
"g. c #B58A63",
"h. c #B98C65",
"j. c #BD876B",
"k. c #B78D6A",
"l. c #B98D6B",
"z. c #BD946B",
"x. c #BF9273",
"c. c #9FA369",
"v. c #A2A161",
"b. c #A9A468",
"n. c #B3A56A",
"m. c #B6A86B",
"M. c #A5BB60",
"N. c #A5BB61",
"B. c #AFB973",
"V. c #B8B97D",
"C. c #C2935C",
"Z. c #C08E6F",
"A. c #C59B6B",
"S. c #C79B6D",
"D. c #C48F71",
"F. c #C79875",
"G. c #D29D76",
"H. c #C8A46E",
"J. c #D2A66E",
"K. c #C6A576",
"L. c #CDA475",
"P. c #CCAC75",
"I. c #D1A774",
"U. c #D2A973",
"Y. c #D5AD7A",
"T. c #CCB075",
"R. c #D7B37C",
"E. c #DCB47C",
"W. c #E2B87E",
"Q. c #9FC054",
"!. c #A2C256",
"~. c #A9C455",
"^. c #AECA56",
"/. c #A6C459",
"(. c #ADC55B",
"). c #ADC95A",
"_. c #B1C75C",
"`. c #B1CA5C",
"'. c #B2CC5D",
"]. c #B3CD5D",
"[. c #B4CE5D",
"{. c #B6D15D",
"}. c #BAD35E",
"|. c #AAC462",
" X c #AECA63",
".X c #ABC269",
"XX c #B4CE61",
"oX c #B8CD6B",
"OX c #BAD164",
"+X c #BCD36A",
"@X c #B7C978",
"#X c #BCD170",
"$X c #C1D769",
"%X c #C0CE78",
"&X c #C2D672",
"*X c #C4D778",
"=X c #CADC7C",
"-X c #CAAA81",
";X c #D4AF85",
":X c #D9B587",
">X c #DDBA85",
",X c #D6B48C",
"<X c #DDBD8C",
"1X c #DBBD94",
"2X c #E4BB80",
"3X c #E1BF89",
"4X c #CCDB83",
"5X c #C7D18D",
"6X c #D2DD8B",
"7X c #E1C08A",
"8X c #E2C492",
"9X c #E5CB9C",
"0X c #E5CA9D",
"qX c #D2E185",
"wX c #D5E38A",
"eX c #D8E58E",
"rX c #D8E592",
"tX c #DCE893",
"yX c #E4CAA1",
"uX c #E7D1A4",
"iX c #E9D2A4",
"pX c #EBD7AB",
"aX c #EEDAAC",
"sX c #F1DDAD",
"dX c #F1DFB1",
"fX c #F4E3B4",
/* pixels */
"].].].].].].].].].].].].].].].].].].].].].].].].].].].].].].].].].].].].].].].].].].].].].].].].].].].].].].].].].].].].].].].].",
"].].].].].].].].].].].].].].].].].].].].].].].].].].].].{.{.{.{.{.{.{.{.[.].].].].].].].].].].].].].].].].].].].].].].].].].].].",
"].].].].].].].].].].].].].].].].].].].].].].].].].].[.`.u.e.w.<.<.w.e.u.`.].].[.].].].].].].].].].].].].].].].].].].].].].].].].",
"].].].].].].].].].].].].].].].].].].].].].].].`._.(.a.i.j 0 0 0 0 0 0 j i.a.(.`.`.].].].].].].].].].].].].].].].].].].].].].].].",
"].].].].].].].].].].].].].].].].].].[.[.]._.(.a.w.k 7 e k.L.I.L.L.I.L.k.e 7 k w.a.(._.].[.[.].].].].].].].].].].].].].].].].].].",
"].].[.[.[.[.].].[.[.[.[.].].[.{.{.).(.(.i.] k k l z.F.Z.H.P.P.P.P.P.P.H.Z.F.z.l k k ] i.(.(.).{.{.[.[.].].].].].].].].].].].].].",
"].].].].].].].].].].].[.[.`.(.(.(.e.] ] ) f.A Z k.P.E.R.n.v.] v.v.] v.n.R.E.P.k.Z A f.) ] ] e.(.(.(.`.[.[.].].].].].].].].].].].",
"[.].).).).).].].).).(.`.`.i.w.w.w.l h v C I.2XE.P.n.b.b.-.R J J J J R -.b.b.n.T.E.2XI.C v h l w.w.w.i.`.`.`.].].].].].].].].].].",
"[.]./.9.9.).[.`.!.9.7.<.e.) f v h S.W.E.Y.H.n.n.v.T G K p.!.9.8.8.9.!.p.K G T v.n.n.m.Y.E.W.S.h v f ) 1.w.a.`.].].].].].].].].].",
"[.`./.9.9./.).).9.,.) N k f.F.L.G.K.K.K.m.' Y -.-.%.J G 9.9.8.6.6.8.9.9.G J %.-.-.Y ' m.K.K.K.G.L.F.f.k N +.u.).].].].].].].].].",
"[.].).!.9.!.!.y.1.) d.D.j.A.P.T.P.b.>.2._ H E 8.8.5.W H 6.6.=.&.&.=.6.6.H W 5.8.8.E H _ 2.>.b.P.T.P.A.j.D.d.+.i.`.].].].].].].].",
"[.].].`.).9.9.9.( N Z.W.2Xn._ Y Y $.Q Q J L 7.$X].6.P H 6.8.5.=.=.5.8.6.H P 6.].$X7.L J Q Q $.Y Y _ n.2XW.Z.N <.`.[.].].].].].].",
"].].[.[.`.!.9.9.,.N d.r.' T K H :.!.!.=.E L %.!.9.5.E H p.!.9.8.8.9.!.p.H E 5.9.!.%.L E =.!.!.:.H K T ' r.d.N <.`.[.].].].].].].",
"].].[.[.].)././.p.+.k F P W P H !.{.).=.W L &.).!.6.E H 6.6.=.&.&.=.6.6.H E 6.!.).&.L W =.).{.!.H P W P F k +.a.`.].].].].].].].",
"].].].].].].].].`.i.` < W %.W L !.).!.=.E L 6.}.).6.P H 5.5.&.%.%.&.5.5.H P 6.).}.6.L E =.!.).!.L W %.W < ` i.`.].].].].].].].].",
"].].].].[.[.[.[.[.{.7.U ;.5.W H 5.9.9.=.E L 6.OX).6.P H 9.9.8.6.6.8.9.9.H P 6.).}.6.L E =.9.9.5.H W 5.;.U 7.[.].].].].].].].].].",
"].].].].].].].].].{.0.D ;.5.E H y.).!.=.E L %.Q.9.=.E H 9.!.9.8.8.8.!.9.H E =.9.Q.%.L E =.!.).y.K W :.;.D 0.{.].].].].].].].].].",
"].].].].].].].].].{.0.D ;.:.W L /.[.).=.E L :.].!.5.E G ! ~ ~ ~ ~ ~ ~ ! G E 6.!.].5.L E =.).[./.L W :.;.D 0.{.].].].].].].].].].",
"].].].].].].].].].{.0.D ;.&.W H 9.).!.=.E L 6.}.a.( ! F { k.l.l.l.l.k.{ F ! ( a.}.6.L E =.!.).9.H W :.;.D 0.{.].].].].].].].].].",
"].].].].].].].].].{.0.D ;.:.W H 5.9.9.=.W I ,.s.r.} v B ,X9XiXuXuXiX9X,XB v } r.s.,.I W =.9.9.5.H W :.;.D 0.{.].].].].].].].].].",
"].].].].].].].].].{.0.D -.5.E L /.(.y.$./ i z x g.<XuX9XiXpXaXpXpXaXpXiX9XuX<Xg.x z i / $.y.(./.L E 5.-.D 0.{.].].].].].].].].].",
"].].].].].].].].].}.q.U ;.&.I S y.+.c i l -X1X,X1XiXaXpX8X<X<X<X<X<X<X8XpXsXiX1X,X1X-Xl i c +.y.S I &.;.U q.}.[.[.].].].].].].].",
"].].].].].].].].].{.7.D -.( ! u ^ z.F.F.L.uXfXaXpX9X9X9XY.H.S.S.S.S.H.Y.9X9X9XpXaXfXuXL.F.F.z.^ u ! ( -.D 7.{.].].].].].].].].].",
"].].].].].].].].]._.e.u ! { h.j.A 1XsXsXaXuX9X9X8XY.J.U.z.d.d.f.d.d.d.k.U.J.Y.8X9X9XuXaXsXsX1XA j.h.{ ! u <.(.).`.].[.].].].].].",
"].].].].].].].].(.t.#.X.x K.yXpXiXuXuXuX9X>XE.E.U.z.k.k.d & & & & & & d k.k.z.U.E.E.>X9XuXuXuXiXiX9XK.x X.+.<.9.).].[.].].].].].",
"].].].].].].].`.y.#.;XiXyX9X9X9X9X8X3X3X:Xz.} f.N d w a & # # # # # # & a w d N f.} z.:X3X3X8X9X9X9X9XyXiX;X#.*.).].[.].].].].].",
"].].].].].].[.`.e.O.,XfXdX9X>X>X>XL.z.z.h.f & q 6 # + + # $ $ $ $ $ $ # + + + 6 q & f h.z.z.L.>X>X>X9XdXfX,Xo.*.(.].[.].].].].].",
"].].].].].].[.`.e.{ x.7X>XR.U.U.U.Z q w w $ + # # $ $ $ $ $ $ $ $ $ $ $ $ $ $ # # + $ w w q Z U.U.U.R.>X3Xx.{ <.`.[.[.].].].].].",
"].].].].].].[.`.<.N Z.W.2Xz.h a d 8 5 5 5 5 5 5 5 5 5 5 5 5 5 5 5 5 5 5 5 5 5 5 5 5 5 5 5 5 8 d a h z.2XW.Z.N <.`.[.].].].].].].",
"].].].].].].].`.a.+.N Z d.g t g g b x x n n n n n n n n n n n n n n n n n n n n n n n n x x b g g t g d.Z N +.a.].].].].].].].].",
"].].].].].].].].].a.+.k % 8 n ......o.o.o.o.o.o.o.o.o.o.o.o.o.o.o.o.o.o.o.o.o.o.o.o.o.o.o.o.......n 8 % k +.a.[.].].].].].].].].",
"].].].].].].].].].].[.a.2 a B o.................................................................o.B a 2 (.[.[.].].].].].].].].].",
"].].].].].].].].].].{.).3 7 t y y y y y y y y y y y y y y y y y y y y y y y y y y y y y y y y y y t 7 2 ).{.].].].].].].].].].].",
"].].].].].].].].].].{.).3 a n V m m | | | m m m m m m m m m m m m m m m m m m m m m m | | | m m | n a 3 ).{.].].].].].].].].].].",
"].].].].].].].].].].{.).2 f ..O.O.o...o.o.O.O.O.O.O.O.O.O.O.O.O.O.O.O.O.O.O.O.O.O.O.O.o.o...o.O.@...f 2 ).{.].].].].].].].].].].",
"].].].].].].].].].].{.).2 d ..o.o.n g g l ..O.o.o.o.o.o.o.o.o.o.o.o.o.o.o.o.o.o.o.O...l g g n o.O...f 2 ).{.].].].].].].].].].].",
"].].].].].].].].].].{.).2 a n | n 9 . o o g [ [ m m | | n M M M M M M n | | m m [ [ g o o . 9 n | n a 2 ).{.].].].].].].].].].].",
"].].].].].].].].].].{.).3 q z x & @ @ # @ # r x x x x t 6 ; - - - - ; 6 t x x x x r # @ # @ @ & x z q 3 ).{.].].].].].].].].].].",
"].].].].].].].].].].{.).3 w n n . o $ $ # . 7 | n n t $ o X X X X X X o $ t n n V 7 . # $ $ o . n b w 3 ).{.].].].].].].].].].].",
"].].].].].].].].].].{.).2 f X.O.- @ $ $ # o f C.C.N 9 o $ $ 6 6 6 6 $ $ o 9 N C.C.f o # $ $ @ - O.X.f 2 ).{.].].].].].].].].].].",
"].].].].].].].].].].{.).2 f X.o.* 7 y y 8 @ a C.C.f @ @ $ $ $ $ $ $ $ $ @ @ f C.C.a @ 8 y y 7 * O.X.f 2 ).{.].].].].].].].].].].",
"].].].].].].].].].].{.).3 w b x $ B S.A.h.a 8 m m 8 o @ $ $ $ $ $ $ $ $ @ o 8 m m 8 a h.A.S.B $ x b w 3 ).{.].].].].].].].].].].",
"].].].].].].].].].].{.).3 q y x y h.U.J.A.n t x x 8 o @ $ $ $ $ $ $ $ $ @ o 8 x x t n A.J.U.h.y x y w 3 ).{.].].].].].].].].].].",
"].].].].].].].].].].{.).2 a B ....o.O.O.O.o.| |  .d o @ $ $ $ $ $ $ $ $ @ o d  .| | o.O.O.O.o.....B a 2 ).{.].].].].].].].].].].",
"].].].].].].].].].].{.).2 f ..O.o.o.o.o.o.o.o.o.@.f @ @ $ $ $ $ $ $ $ $ @ o f @.o.o.o.o.o.o.o.o.O...f 2 ).{.].].].].].].].].].].",
"].].].].].].].].].].{.).1 d ..O.O.o.o.o.o.o.O.O.C.g o @ 6 5 5 5 5 5 5 6 @ o g C.O.O.o.o.o.o.o.O.O...d 1 ).{.].].].].].].].].].].",
"].].].].].].].].].].[.`.` j h g g g g g g g g g b 9 o $ y x x x x x x y $ o 9 b g g g g g g g g g f j ` `.[.].].].].].].].].].].",
"].].].].].].].].].`.].].}.` , :   . o .   O : : : : % 8 | o.o.....o.o.[ 8 % : : : : O   . o .   : , ` }.].].].].].].].].].].].].",
"].].].].].].].`.^.^.`.].].a.p.4.: r x g * ' |.u.u.N.3.e B [ m n n m [ B e 3.N.u.u.|.' * g n r : 0.p.(.[.].].].].].].].].].].].].",
"].].].].].].].[.XXXXXX].]. X XN.: g  .n = 3. XN.N. X4.p B | | [ [ | | B p 4. XN.N. X3.= n  .g : p.|.).].].].].].].].].].].].].].",
"].].].].].`.].+X*X=X&X].[.oX@X@X: g o.B = 2.|.N.N.|.3.p B | | | | | | B p 3.|.N.N.|.2.= B o.g : u.N.(.[.].].].].].].].].].].].].",
"].].].].].^.].&XeXtX=XXXXX*X6X5X> g o.n = 2.|.N.N.|.3.p B [ m n n m [ B p 3.|.N.N.|.2.= n o.g : u.|.(.[.].].].].].].].].].].].].",
"].].].].].^.].&XwXtXqX&X&X4X5X5X> g o.n = 2.|.N.N.|.3.p B | | | | | | B p 3.|.p.N.|.2.= n o.g : u.N.(.[.].].].].].].].].].].].].",
"].].].].].`.].OX&X=XqXqXqX4X*XB.O b C.} . '  XN.N.|.3.p B ....| ......B e 3./.p.N. X' . B C.b O u. X).].].].].].].].].].].].].].",
"].].].].].].].].`.OX=XtXtX=XoXp.2 f M g 1 3.|.N.N.|.3.p B | | m m | | B e 3.|.p.N.|.3.1 g n f 2 p.`.].].].].].].].].].].].].].].",
"].].].].].].].`.~.`.&XwXwX&X].~.3.j ; 1 ' N.N.N.N.|.3.p B [ m n n m [ B p b.@X.XN.N.N.c.p ; j 3.).].].].].].].].].].].].].].].].",
"].].].].].].].].`.].OX&X&XOX].`.`.e.] 3.).).).).).XX4.e B ............B e V.rX4XXX).#X6XV.b.t.).`.].].].].].].].].].].].].].].].",
"].].].].].].].].].].].].].].].].[.).(.).[.].].].].XX4.e B | m m m m | B e V.tXeX#XOX=XtX6X%XXX^.].].].].].].].].].].].].].].].].",
"].].].].].].].].].].`.^.^.`.].].].[.[.[.].].].].[.XX3.7 B | [ m m [ | B 7 B.qXwX4X=XqXwXqX&XXX).].].].].].].].].].].].].].].].].",
"].].].].].].].].].].].].].].].].].].].].].].].].].XXt.s n | | | | | | n s t.+X=XeXtXqX&XOX[.].].].].].].].].].].].].].].].].].].",
"].].].].].].].].].].].].].].].].].].].].].].].].].].).u.s 4 4 4 4 4 4 s u.~.].#XwXtX4XOX^.^.].].].].].].].].].].].].].].].].].].",
"].].].].].].].].].].].].].].].].].].].].].].].].].].].`.u.e.e.e.e.e.e.u.`.^.`.OX*X=X&X[.^.`.].].].].].].].].].].].].].].].].].].",
"].].].].].].].].].].].].].].].].].].].].].].].].].].].].{.{.{.{.{.{.{.{.[.].].[.XXXXXX].].].].].].].].].].].].].].].].].].].].].",
"].].].].].].].].].].].].].].].].].].].].].].].].].].].].].].].].].].].].].].].`.^.^.^.].].].].].].].].].].].].].].].].].].].].]."
};
