/* XPM */
static char *_14d45ea35cf4b51a16028627b33a06buReLw9lMsRE3evWk[] = {
/* columns rows colors chars-per-pixel */
"64 64 137 2 ",
"   c #000076",
".  c #310A7E",
"X  c #432F77",
"o  c #482F7E",
"O  c #45456E",
"+  c #504D75",
"@  c #504979",
"#  c #575576",
"$  c #595B71",
"%  c #545078",
"&  c #5D6170",
"*  c #646B6D",
"=  c #6A6E74",
"-  c #6B7171",
";  c #6E737B",
":  c #7B7F7A",
">  c #7D9162",
",  c #7C8373",
"<  c #7F8478",
"1  c #81995E",
"2  c #94AC5E",
"3  c #97B952",
"4  c #9BBC54",
"5  c #9DB55D",
"6  c #A2B85F",
"7  c #8C9C67",
"8  c #8C9B6A",
"9  c #8F977C",
"0  c #92A565",
"q  c #9AAC64",
"w  c #92A26C",
"e  c #9DB263",
"r  c #A0B763",
"t  c #A3B963",
"y  c #A8BF62",
"u  c #9EC24F",
"i  c #A2C256",
"p  c #AECA56",
"a  c #A6C458",
"s  c #AAC75A",
"d  c #ADC95B",
"f  c #B3CD5D",
"g  c #B6D15C",
"h  c #B9D45A",
"j  c #BDD959",
"k  c #A8C360",
"l  c #B5CE61",
"z  c #B9D166",
"x  c #BCD36A",
"c  c #C5D45E",
"v  c #CED95E",
"b  c #CCCC65",
"n  c #D3C96E",
"m  c #C0D56F",
"M  c #C2D672",
"N  c #C6D977",
"B  c #C7DA78",
"V  c #CBDC7D",
"C  c #E5D969",
"Z  c #4B3A81",
"A  c #513989",
"S  c #4B2790",
"D  c #443297",
"F  c #564B80",
"G  c #5B4B86",
"H  c #564388",
"J  c #585081",
"K  c #544596",
"L  c #5D4E95",
"P  c #524599",
"I  c #534A98",
"U  c #615485",
"Y  c #645C83",
"T  c #625788",
"R  c #645B9B",
"E  c #736997",
"W  c #7D6AA9",
"Q  c #8E7FA9",
"!  c #858A81",
"~  c #8E8F87",
"^  c #8D8694",
"/  c #8F8B94",
"(  c #8E8398",
")  c #8F8899",
"_  c #928A96",
"`  c #A4A197",
"'  c #B7B49D",
"]  c #BAB79F",
"[  c #B9B89A",
"{  c #A09DA0",
"}  c #A195B6",
"|  c #BFBEA6",
" . c #DD8C95",
".. c #E2A59C",
"X. c #C7A7AF",
"o. c #C0BEA3",
"O. c #C6BBAC",
"+. c #E5B6A1",
"@. c #E5BCA3",
"#. c #CEDF82",
"$. c #D0DF83",
"%. c #D2E185",
"&. c #D6E38A",
"*. c #D8E58D",
"=. c #DCE792",
"-. c #DDE893",
";. c #C3C2A7",
":. c #C8C4A6",
">. c #CECDA6",
",. c #C6C5AA",
"<. c #CBCCAC",
"1. c #D5D7A9",
"2. c #DADDAB",
"3. c #DEDBBA",
"4. c #E7C7A6",
"5. c #ECC5A5",
"6. c #EED9AB",
"7. c #E4E5AF",
"8. c #E7E8AE",
"9. c #E7E8B0",
"0. c #EDEDB3",
"q. c #F1ECB2",
"w. c #F7E0B9",
"e. c #F8E1B9",
"r. c #EFF0B3",
"t. c #F2F3B4",
"y. c #F8F2B6",
"u. c #F6F8B6",
"i. c #FAFBB5",
"p. c #FDFFB7",
"a. c #FBF5B8",
"s. c #FFFFB9",
"d. c #C0B6CA",
"f. c #D4C9DA",
"g. c #E4DBDB",
"h. c #E8E5C0",
"j. c #F5F3C8",
/* pixels */
"f f f f f f f f f f f f f f f f f f f f f f f f f f f f f f f f f f f f f f f f f f f f f f f f f f f f f f f f f f f f f f f f ",
"f f f f f f f f f f f f f f f f f f f f f f f f f f f f f f f f f f f f f f f f f f f f f f f f f f f f f f f f f f f f f f f f ",
"f f f f f f f f f f f f f f f f f f f f f f f f f f f f f f f f f f f f f f f f f f f f f f f f f f f f f f f f f f f f f f f f ",
"f f f f f f f f f f f f f f f f f f f f f f f f f f f f f f f f f f f f f f f f f f f f f f f f f f f f f f f f f f f f f f f f ",
"f f f f f f f f f f f f f f f f f f f f f f f f f f f d d f f f d d f f f f f f f f f f f f f f f f f f f f f f f f f f f f f f ",
"f f f f f f f f f f f f f f f f f f f f f f f f f f s i i d f f i i a f f f f f f f f f f f f f f f f f f f f f f f f f f f f f ",
"f f f f f f f f f f f f f f f f f f f f f f f f f f a 4 4 s f d 4 4 i d f f f f f f f f f f f f f f f f f f f f f f f f f f f f ",
"f f d s s d f f d s d f f f f f f f f f f f f f f f s 4 4 i s a 4 4 i d f f f f f f f f f f f f f f f f f f f f f f f f f f f f ",
"f f a 4 4 s f f i 4 i d f f f f f f f f f f f f f f f d a 4 4 4 i s d f f f f f f f f f f f f f f f f f f f f f f f f f f f f f ",
"f f a 4 4 a d s 4 4 i d f f f f f f f f f f f f f f f f d i 3 4 s f f f f f f f f f f f f f f f f f f f f f f f f f f f f f f f ",
"f f s i 4 i i i 4 i a f f f f f f f f f f f f f f f f f f a i i d f f f f f f f f f f f f f f f f f f f f f f f f f f f f f f f ",
"f f f f s 4 4 4 a d f f f f f f f f f f f f f f f f f f f f d d f f f f f f f f f f f f f f f f f f f f f f f f f f f f f f f f ",
"f f f f f i 4 4 d f f f f f f f f f f f f f f f f f f f f f f f f f f f f f f f f f f f f f f f f f f f f f f f f f f f f f f f ",
"f f f f f s a a f f f f f f f f f f f f f f f f f f f f f f f f f f f f f f f f f f f f f f f f f f f f f f f f f f f f f f f f ",
"f f f f f f f f f f f f f f f f f f f f f f f f f f f f f f f f f f f f f f f f f f f f f f f f f f f f f f f f f f f f f f f f ",
"f f f f f f f f f f f f f f f f f f f f f f f f f f f f f f f f f f f f f f f f f f f f f f f f f f f f f f f f f f f f f f f f ",
"f f f f f f f f f f f f f f f f f f f f f f f f f f f f f f f f f f f f f f f f f f f f f f f f f f f f f f f f f f f f f f f f ",
"f f f f f f f f f f f f f f f f f f f f f f f f f f f f f f f f f f f f f f f f f f f f f f f f f f f f f f f f f f f f f f f f ",
"f f f f f f f f f f f f f f f f f f f f f f f f f f f f f f f f f f f f f f f f f f f f f f f f f f f f f f f f f f f f f f f f ",
"f f f f f f f f f f f f f f f f f f f f f f f f f f f f f f f f f f f f f f f f f f f f f f f f f f f f f f f f f f f f f f f f ",
"f f f f f f f f f f f f f f f f f f f f f f f f f f f f f f f h h h g f f f f f f f f f f f f f f f f f f f f f f f f f f f f f ",
"f f f f f f f f f f f f f f f f f f f f f f f f f f f f f j r & * & 7 j f f f f f f f f f f f f f f f f f f f f f f f f f f f f ",
"f f f f f f f f f f f f f f f f f f f f f f f f f f f f h t 9 ( / ) ~ 0 f g f f f f f f f f f f f f f f f f f f f f f f f f f f ",
"f f f f f f f f f f f f f f f f f f f f f f f f f f f f f $ ( s.y.p.:.F t f f f f f f f f f f f s s d f f d s s f f f f f f f f ",
"f f f f f f f f f f f f f f f f f f f f f f f f f f h f #   / y.+...4.2.Y 0 h f f f f f f f f s 4 4 a f f a 4 4 s f f f f f f f ",
"f f f f f f f f f f f f f f f f f f f f f f f f f g e : ] o.1.q... .5.0.H 7 h f f f f f f f f s 4 4 i d d i 4 4 s f f f f f f f ",
"f f f f f f f f f f f f f f f f f f f f f f f f f h 7 A 0.s.u.0.4.@.6.7.G 7 h f f f f f f f f d i 4 i i i i 4 i d f f f f f f f ",
"f f f f f f f f f f f f f f f f f f f f f f f f f h 7 G 7.y.t.t.t.t.u.7.G 7 h f f f f f f f f f f d i 4 4 i d f f f f f f f f f ",
"f f f f f f f f f f f f f f f f f f f f f f f f f j 0 G 7.y.t.t.t.t.y.7.G 0 j f f f f f f f f f g f a 4 4 a f g f f f f f f f f ",
"f f f f f f f f f f f f f f f f f f f f f f f f g w + Z 7.i.u.r.t.t.y.7.T @ 8 g f f f f f f f f f f d a a d f f f f f f f f f f ",
"f f f f f f f f f f f f f f f f f f f f f f f f h = A ` 0.>.>.t.t.t.y.7.T % 8 g f f f f f f f f f f f f f f f f f f f f f f f f ",
"f f f f f f f f f f f f f f f f f f f f f f f f h * _ s.u.^ ^ u.t.t.y.7.G 7 g f f f f f f f f f f f f f f f f f f f f f f f f f ",
"f f f f f f f f f f f f f f f f f f f f f f f f h * ( u.t.9.8.t.t.t.y.7.T . , h f f f f f f f f f f f f f f f f f f f f f f f f ",
"f f f f f f f f f f f f f f f f f f f f f f f f h & ( s.u.p.a.w.e.y.p.0.H - r f f f f f f f f f f f f f f f f f f f f f f f f f ",
"f f f f f f f f f f f f f f f f f f f f f f f f g 7 ~ ;.,.<.O.X.X.O.;.[ < 5 p a d f f f f f f f f f f f f f f f f f f f f f f f ",
"f f f f f f f f f f f f f f f f f f f f f f f f f j q o K P P I I R L J y a 4 4 s f f f f f f f f f f f f f f f f f f f f f f f ",
"f f f f f f f f f f f f f f f f f f f f f f f f f f c n E P P P D | h.d.T 1 u 4 s f f f f f f f f f f f f f f f f f f f f f f f ",
"f f f f f f f f f f f f f f f f f f f f f f f f f d v C U { <.,.,.8.j.f.S > p s d f f f f f f f f f f f f f f f f f f f f f f f ",
"f f f f f f f f f f f f f f f f f f f f f f f f f f c b X :.s.i.i.i.3.} ; 2 f f f f f f f f f f f f f f f f f f f f f f f f f f ",
"f f f f f f f f f f f f f f f f f f f f f f f f f f g k # ] t.0.0.t.' O 3 p f g f f f f f f f f f f f f f f f f f f f f f f f f ",
"f f f f f f f f f f f f f f f f f f f f f f f f f f f f f - Q g.g.Q - s s d f f f f f f f f f f f f f f f f f f f f f f f f f f ",
"f f f f f f f f f f f f f f f f f f f f f f f f f f f f h 5 ! W W ! 5 g f f f f f f f f f f f f f f f f f f f f f f f f f f f f ",
"f f f f f f f f f f f f f f f f f f f f f f f f f f f f f j 6 * * 6 j f f f f f f f f f f f f f f f f f f f f f f f f f f f f f ",
"f f f f f f f f f f f f f f f f f f f f f f f f f f f f f f f h h f f f f f f f f f f f f f f f f f f f f f f f f f f f f f f f ",
"f f f f f f f f f f f f f f f f f f f f f f f f f f f f f f f f f f f f f f f f f f f f f f f f f f f f f f f f f f f f f f f f ",
"f f f f f f f f f f f f f f f f f f f f f f f f f f f f f f f f f f f f f f f f f f f f f f f f f f f f f f f f f f f f f f f f ",
"f f f f f f f f f f f f f f f f f f f f f f f f f f f f f f f f f f f f f f f f f f f f f f f f f f f f f f f f f f f f f f f f ",
"f f f f f f f f f f f f f f f f f f f f f f f f f f f f f f f f f f f f f f f f f f f f f f f f f f f f f f f f f f f f f f f f ",
"f f f f f f f f p p f f f f p p f f f f f f f f f f f f f f f f f f f f f f f f f f f f f f f f f f f f f f f f f f f f f f f f ",
"f f f f f f f f l l l f f l l l f f f f f f f f f f f f f f f f f f f f f f f f f f f f f f f f f f f f f f f f f f f f f f f f ",
"f f f f f f f x B V m f f m V B x f f f f f f f f f f f f f f f f f f f f f f f f f f f f f f f f f f f f f f f f f f f f f f f ",
"f f f f f p f M &.-.V l l V -.&.M f p f f f f f f f f f f f f f f f f f f f f f f f f f f f f f f f f f f f f f f f f f f f f f ",
"f f f f f p f M &.-.%.m m %.-.&.M f p f f f f f f f f f f f f f f f f f f f f f f f f f f f f f f f f f f f f f f f f f f f f f ",
"f f f f f f f z M V %.%.%.%.V M z f f f f f f f f f f f f f f f f f f f f f p p f f f p p f f f f f f f f f f f f f f f f f f f ",
"f f f f f f f f f z V -.-.V z f f f f f f f f f f f f f f f f f f f f f f f f f f f f f f f f f f f f f f f f f f f f f f f f f ",
"f f f f f f f f p f M &.&.M f p f f f f f f f f f f f f f f f f f f f f l x M x l f z M M x f f f f f f f f f f f f f f f f f f ",
"f f f f f f f f f f z M M z f f f f f f f f f f f f f f f f f f f f f f z #.*.%.z f m &.&.B l p f f f f f f f f f f f f f f f f ",
"f f f f f f f f f f f f f f f f f f f f f f f f f f f f f f f f f f f f z %.-.*.m z V -.-.V l p f f f f f f f f f f f f f f f f ",
"f f f f f f f f f f f p p f f f f f f f f f f f f f f f f f f f f f f f z B %.&.#.V $.&.#.M l f f f f f f f f f f f f f f f f f ",
"f f f f f f f f f f f f f f f f f f f f f f f f f f f f f f f f f f f f f f x V *.-.%.M z f f f f f f f f f f f f f f f f f f f ",
"f f f f f f f f f f f f f f f f f f f f f f f f f f f f f f f f f f f f f p f x &.=.#.z p p f f f f f f f f f f f f f f f f f f ",
"f f f f f f f f f f f f f f f f f f f f f f f f f f f f f f f f f f f f f p f z N V M f p f f f f f f f f f f f f f f f f f f f ",
"f f f f f f f f f f f f f f f f f f f f f f f f f f f f f f f f f f f f f f f f l l l f f f f f f f f f f f f f f f f f f f f f ",
"f f f f f f f f f f f f f f f f f f f f f f f f f f f f f f f f f f f f f f f f p p p f f f f f f f f f f f f f f f f f f f f f "
};
