/* XPM */
static char *_33448ac2cc64333dc15b73b83831509C2hOxp1HRaFz2hs7[] = {
/* columns rows colors chars-per-pixel */
"64 64 133 2 ",
"   c #130075",
".  c #170079",
"X  c #25007B",
"o  c #36207A",
"O  c #3A2B78",
"+  c #3D3077",
"@  c #453E75",
"#  c #473E78",
"$  c #594F7D",
"%  c #5E5774",
"&  c #5C587B",
"*  c #5D616C",
"=  c #61676F",
"-  c #656B6E",
";  c #71686E",
":  c #62706A",
">  c #68706E",
",  c #717B6B",
"<  c #6C7075",
"1  c #787F74",
"2  c #7A846E",
"3  c #7C8472",
"4  c #7C807A",
"5  c #97B952",
"6  c #9CBD54",
"7  c #8B9C65",
"8  c #83926A",
"9  c #8C9B6C",
"0  c #94867B",
"q  c #8EA066",
"w  c #93A761",
"e  c #94AC60",
"r  c #92A16C",
"t  c #98AA69",
"y  c #A2B665",
"u  c #A4B964",
"i  c #9CC151",
"p  c #A2C156",
"a  c #A9C357",
"s  c #AECA56",
"d  c #A6C458",
"f  c #AAC65A",
"g  c #ADC95B",
"h  c #B3CD5D",
"j  c #B6D15C",
"k  c #B8D45A",
"l  c #BCD959",
"z  c #ACC360",
"x  c #B5CE61",
"c  c #B9D166",
"v  c #BCD36A",
"b  c #CFD65C",
"n  c #C0D56F",
"m  c #DBD662",
"M  c #C2D672",
"N  c #C6D977",
"B  c #C7DA78",
"V  c #CBDC7D",
"C  c #EFE761",
"Z  c #3B1385",
"A  c #3E2996",
"S  c #48308A",
"D  c #4D3A8F",
"F  c #533D89",
"G  c #534682",
"H  c #5B4C87",
"J  c #5C5183",
"K  c #4E409E",
"L  c #534699",
"P  c #524A98",
"I  c #5D549A",
"U  c #6B5B8D",
"Y  c #675591",
"T  c #685D99",
"R  c #767098",
"E  c #7C66AC",
"W  c #827E92",
"Q  c #8074A0",
"!  c #88818F",
"~  c #998E8C",
"^  c #919385",
"/  c #8F8696",
"(  c #8F8A93",
")  c #8F8998",
"_  c #938C94",
"`  c #969193",
"'  c #A7A695",
"]  c #B7B69E",
"[  c #9691A0",
"{  c #BEBCA1",
"}  c #B6ABBF",
"|  c #DD8C96",
" . c #E2A59C",
".. c #C7ACAF",
"X. c #C0BDA3",
"o. c #C5B2AD",
"O. c #C7A6B0",
"+. c #E3B4A0",
"@. c #E6BDA3",
"#. c #CEDF82",
"$. c #D0DF83",
"%. c #D2E185",
"&. c #D6E38A",
"*. c #D8E58D",
"=. c #DCE792",
"-. c #DDE893",
";. c #C4C1A4",
":. c #C8C7A4",
">. c #C5C3AA",
",. c #C8C6AB",
"<. c #CBCAAC",
"1. c #D9D9AA",
"2. c #E8C8A6",
"3. c #EDCEA8",
"4. c #E9D3A9",
"5. c #F7DFBA",
"6. c #E5E5AE",
"7. c #EAE6B0",
"8. c #E5E8B0",
"9. c #ECECB3",
"0. c #EFEFB8",
"q. c #F8E5B9",
"w. c #F8EBB8",
"e. c #EEF1B3",
"r. c #F1F2B3",
"t. c #FAF6B5",
"y. c #F7F8B6",
"u. c #FAFBB6",
"i. c #F5F6B9",
"p. c #FFFFB9",
"a. c #D3CAD0",
"s. c #D4CBD1",
"d. c #EAE1DF",
/* pixels */
"h h h h h h h h h h h h h h h h h h h h h h h h h h h h h h h h h h h h h h h h h h h h h h h h h h h h h h h h h h h h h h h h ",
"h h h h h h h h h h h h h h h h h h h h h h h h h h h h h h h h h h h h h h h h h h h h h h h h h h h h h h h h h h h h h h h h ",
"h h h h h h h h h h h h h h h h h h h h h h h h h h h h h h h h h h h h h h h h h h h h h h h h h h h h h h h h h h h h h h h h ",
"h h h h h h h h h h h h h h h h h h h h h h h h h h h h h h h h h h h h h h h h h h h h h h h h h h h h h h h h h h h h h h h h ",
"h h h h h h h h h h h h h h h h h h h h h h h h h h h g g h h h g g h h h h h h h h h h h h h h h h h h h h h h h h h h h h h h ",
"h h h h h h h h h h h h h h h h h h h h h h h h h h f p p g h h p p d h h h h h h h h h h h h h h h h h h h h h h h h h h h h h ",
"h h h h h h h h h h h h h h h h h h h h h h h h h h d 6 6 f h g 6 6 p g h h h h h h h h h h h h h h h h h h h h h h h h h h h h ",
"h h g f f g h h g f g h h h h h h h h h h h h h h h f 6 6 p f d 6 6 p g h h h h h h h h h h h h h h h h h h h h h h h h h h h h ",
"h h d 6 6 f h h p 6 p g h h h h h h h h h h h h h h h g d 6 6 6 p f g h h h h h h h h h h h h h h h h h h h h h h h h h h h h h ",
"h h d 6 6 d g f 6 6 p g h h h h h h h h h h h h h h h h g p 5 6 f h h h h h h h h h h h h h h h h h h h h h h h h h h h h h h h ",
"h h f p 6 p p p 6 p d h h h h h h h h h h h h h h h h h h d p p g h h h h h h h h h h h h h h h h h h h h h h h h h h h h h h h ",
"h h h h f 6 6 6 d g h h h h h h h h h h h h h h h h h h h h g g h h h h h h h h h h h h h h h h h h h h h h h h h h h h h h h h ",
"h h h h h p 6 6 g h h h h h h h h h h h h h h h h h h h h h h h h h h h h h h h h h h h h h h h h h h h h h h h h h h h h h h h ",
"h h h h h f d d h h h h h h h h h h h h h h h h h h h h h h h h h h h h h h h h h h h h h h h h h h h h h h h h h h h h h h h h ",
"h h h h h h h h h h h h h h h h h h h h h h h h h h h h h h h h h h h h h h h h h h h h h h h h h h h h h h h h h h h h h h h h ",
"h h h h h h h h h h h h h h h h h h h h h h h h h h h h h h h h h h h h h h h h h h h h h h h h h h h h h h h h h h h h h h h h ",
"h h h h h h h h h h h h h h h h h h h h h h h h h h h h h h h h h h h h h h h h h h h h h h h h h h h h h h h h h h h h h h h h ",
"h h h h h h h h h h h h h h h h h h h h h h h h h h h h h h h h h h h h h h h h h h h h h h h h h h h h h h h h h h h h h h h h ",
"h h h h h h h h h h h h h h h h h h h h h h h h h h h h h h h h h h h h h h h h h h h h h h h h h h h h h h h h h h h h h h h h ",
"h h h h h h h h h h h h h h h h h h h h h h h h h h h h h h h h h h h h h h h h h h h h h h h h h h h h h h h h h h h h h h h h ",
"h h h h h h h h h h h h h h h h h h h h h h h h h h h h j k k j h h h h h h h h h h h h h h h h h h h h h h h h h h h h h h h h ",
"h h h h h h h h h h h h h h h h h h h h h h h h h h k h , = = , h k h h h h h h h h h h h h h h h h h h h h h h h h h h h h h h ",
"h h h h h h h h h h h h h h h h h h h h h h h h h k f 9 ( ) / ( r f j h h h h h h h h h h h h h h h h h h h h h h h h h h h h h ",
"h h h h h h h h h h h h h h h h h h h h h h h h h h 9 U 7.t.u.9.F 8 h h h h h h h h h h h h h h f f g h h g f f h h h h h h h h ",
"h h h h h h h h h h h h h h h h h h h h h h h h j , ( 7.+. .3.8.G . 2 l h h h h h h h h h h h f 6 6 d h h d 6 6 f h h h h h h h ",
"h h h h h h h h h h h h h h h h h h h h h h h h k = ) t. .| @.e.:.;.' 2 g h h h h h h h h h h f 6 6 p g g p 6 6 f h h h h h h h ",
"h h h h h h h h h h h h h h h h h h h h h h h h k - / t.2.@.4.r.u.p.;.o z j h h h h h h h h h g p 6 p p p p 6 p g h h h h h h h ",
"h h h h h h h h h h h h h h h h h h h h h h h h k - / y.r.r.r.r.r.u.X.# z j h h h h h h h h h h h g p 6 6 p g h h h h h h h h h ",
"h h h h h h h h h h h h h h h h h h h h h h h h l > / y.r.r.r.r.r.u.X.# g k h h h h h h h h h h j h d 6 6 d h j h h h h h h h h ",
"h h h h h h h h h h h h h h h h h h h h h h j z 1 O _ y.r.r.e.r.u.p.{   < y j h h h h h h h h h h h g d d g h h h h h h h h h h ",
"h h h h h h h h h h h h h h h h h h h h h h j g 3 + _ y.r.r.r.9.{ 6.1.! Z 9 k h h h h h h h h h h h h h h h h h h h h h h h h h ",
"h h h h h h h h h h h h h h h h h h h h h h h h h - / y.r.r.t.6.J { p.9.H 7 k h h h h h h h h h h h h h h h h h h h h h h h h h ",
"h h h h h h h h h h h h h h h h h h h h h h j z & X ` y.r.r.r.e.6.9.t.6.H r l h h h h h h h h h h h h h h h h h h h h h h h h h ",
"h h h h h h h h h h h h h h h h h h h h h h h h t @ _ p.u.w.5.q.u.u.u.9.F 9 k h h h h h h h h h h h h h h h h h h h h h h h h h ",
"h h h h h h h h h h h h h h h h h h h h h h h h l q ^ ;.>.o.O...>.,.>.] 4 e s d g h h h h h h h h h h h h h h h h h h h h h h h ",
"h h h h h h h h h h h h h h h h h h h h h h h h h j r S T I P P L L D % g s 6 6 f h h h h h h h h h h h h h h h h h h h h h h h ",
"h h h h h h h h h h h h h h h h h h h h h h h h j , Q a.9.[ A L L K ~ m h 6 6 6 f h h h h h h h h h h h h h h h h h h h h h h h ",
"h h h h h h h h h h h h h h h h h h h h h h h h k * E d.i.1.>.,.<.R 0 C a 6 p f g h h h h h h h h h h h h h h h h h h h h h h h ",
"h h h h h h h h h h h h h h h h h h h h h h h h j 7 W } 0.u.u.u.p./ ; b 6 p g h h h h h h h h h h h h h h h h h h h h h h h h h ",
"h h h h h h h h h h h h h h h h h h h h h h h h h l w $ 1.0.0.0.9._ : i 6 f h j h h h h h h h h h h h h h h h h h h h h h h h h ",
"h h h h h h h h h h h h h h h h h h h h h h h h h h h u $ } d.s.Y 9 g f f g h h h h h h h h h h h h h h h h h h h h h h h h h h ",
"h h h h h h h h h h h h h h h h h h h h h h h h h h j h w W E Q 9 f k h h h h h h h h h h h h h h h h h h h h h h h h h h h h h ",
"h h h h h h h h h h h h h h h h h h h h h h h h h h h h l 7 * , h k h h h h h h h h h h h h h h h h h h h h h h h h h h h h h h ",
"h h h h h h h h h h h h h h h h h h h h h h h h h h h h h j k j h h h h h h h h h h h h h h h h h h h h h h h h h h h h h h h h ",
"h h h h h h h h h h h h h h h h h h h h h h h h h h h h h h h h h h h h h h h h h h h h h h h h h h h h h h h h h h h h h h h h ",
"h h h h h h h h h h h h h h h h h h h h h h h h h h h h h h h h h h h h h h h h h h h h h h h h h h h h h h h h h h h h h h h h ",
"h h h h h h h h h h h h h h h h h h h h h h h h h h h h h h h h h h h h h h h h h h h h h h h h h h h h h h h h h h h h h h h h ",
"h h h h h h h h h h h h h h h h h h h h h h h h h h h h h h h h h h h h h h h h h h h h h h h h h h h h h h h h h h h h h h h h ",
"h h h h h h h h s s h h h h s s h h h h h h h h h h h h h h h h h h h h h h h h h h h h h h h h h h h h h h h h h h h h h h h h ",
"h h h h h h h h x x x h h x x x h h h h h h h h h h h h h h h h h h h h h h h h h h h h h h h h h h h h h h h h h h h h h h h h ",
"h h h h h h h v B V n h h n V B v h h h h h h h h h h h h h h h h h h h h h h h h h h h h h h h h h h h h h h h h h h h h h h h ",
"h h h h h s h M &.-.V x x V -.&.M h s h h h h h h h h h h h h h h h h h h h h h h h h h h h h h h h h h h h h h h h h h h h h h ",
"h h h h h s h M &.-.%.n n %.-.&.M h s h h h h h h h h h h h h h h h h h h h h h h h h h h h h h h h h h h h h h h h h h h h h h ",
"h h h h h h h c M V %.%.%.%.V M c h h h h h h h h h h h h h h h h h h h h h s s h h h s s h h h h h h h h h h h h h h h h h h h ",
"h h h h h h h h h c V -.-.V c h h h h h h h h h h h h h h h h h h h h h h h h h h h h h h h h h h h h h h h h h h h h h h h h h ",
"h h h h h h h h s h M &.&.M h s h h h h h h h h h h h h h h h h h h h h x v M v x h c M M v h h h h h h h h h h h h h h h h h h ",
"h h h h h h h h h h c M M c h h h h h h h h h h h h h h h h h h h h h h c #.*.%.c h n &.&.B x s h h h h h h h h h h h h h h h h ",
"h h h h h h h h h h h h h h h h h h h h h h h h h h h h h h h h h h h h c %.-.*.n c V -.-.V x s h h h h h h h h h h h h h h h h ",
"h h h h h h h h h h h s s h h h h h h h h h h h h h h h h h h h h h h h c B %.&.#.V $.&.#.M x h h h h h h h h h h h h h h h h h ",
"h h h h h h h h h h h h h h h h h h h h h h h h h h h h h h h h h h h h h h v V *.-.%.M c h h h h h h h h h h h h h h h h h h h ",
"h h h h h h h h h h h h h h h h h h h h h h h h h h h h h h h h h h h h h s h v &.=.#.c s s h h h h h h h h h h h h h h h h h h ",
"h h h h h h h h h h h h h h h h h h h h h h h h h h h h h h h h h h h h h s h c N V M h s h h h h h h h h h h h h h h h h h h h ",
"h h h h h h h h h h h h h h h h h h h h h h h h h h h h h h h h h h h h h h h h x x x h h h h h h h h h h h h h h h h h h h h h ",
"h h h h h h h h h h h h h h h h h h h h h h h h h h h h h h h h h h h h h h h h s s s h h h h h h h h h h h h h h h h h h h h h "
};
