/* XPM */
static char *_0eb3865111c490b9e379e0d2be6b643slQuBGvWz1MZwtPm[] = {
/* columns rows colors chars-per-pixel */
"48 48 8 1 ",
"  c None",
". c #EAE178",
"X c #5C4E92",
"o c #766DAA",
"O c #E8B5AC",
"+ c #DDD5DE",
"@ c #F3D8C5",
"# c #F3F2C0",
/* pixels */
"                                                ",
"                                                ",
"                                                ",
"                                                ",
"                                                ",
"                                                ",
"                                                ",
"                                                ",
"                                                ",
"                                                ",
"                                                ",
"                                                ",
"                                                ",
"                                                ",
"                                                ",
"                                                ",
"                     XXX                        ",
"                    X###X                       ",
"                   X#OO#XX                      ",
"                   X#OO###X                     ",
"                   X######X                     ",
"                   X######X                     ",
"                  XX######XX                    ",
"                   X####X##X                    ",
"                  XX#######X                    ",
"                   X##@@###X                    ",
"                    XoooooX                     ",
"                   X+#oooo.                     ",
"                   X+####X.                     ",
"                    X####X                      ",
"                     X++X                       ",
"                      XX                        ",
"                                                ",
"                                                ",
"                                                ",
"                                                ",
"                                                ",
"                                                ",
"                                                ",
"                                                ",
"                                                ",
"                                                ",
"                                                ",
"                                                ",
"                                                ",
"                                                ",
"                                                ",
"                                                "
};
