/* XPM */
static char *_b9b2c5b93a4453fe896272765cfca20uI7qig5xIO0wfe6Q[] = {
/* columns rows colors chars-per-pixel */
"64 64 42 1 ",
"  c #97BA52",
". c #99BB52",
"X c #9BBD53",
"o c #9DBE54",
"O c #A2C256",
"+ c #A5C357",
"@ c #A5C457",
"# c #ACC952",
"$ c #AFCB57",
"% c #A7C458",
"& c #ABC75A",
"* c #ABC85A",
"= c #AFCA5B",
"- c #B0CB57",
"; c #B0CB58",
": c #B2CC5B",
"> c #B0CB5C",
", c #B3CD5D",
"< c #B4CE5D",
"1 c #B7D05F",
"2 c #B6CF60",
"3 c #B7D063",
"4 c #B8D063",
"5 c #BAD267",
"6 c #BBD268",
"7 c #BCD369",
"8 c #BFD56D",
"9 c #C0D66F",
"0 c #C2D771",
"q c #C4D874",
"w c #C7DA78",
"e c #C8DA79",
"r c #CBDC7D",
"t c #CCDD7F",
"y c #CDDE80",
"u c #D0E084",
"i c #D4E288",
"p c #D7E48B",
"a c #D7E48C",
"s c #DAE68F",
"d c #DFEA96",
"f c #E2EC99",
/* pixels */
",,,,,,,,,,,,,,,,,,,,,,,,,,,,,,,,,,,,,,,,,,,,,,,,,,,,,,,,,,,,,,,,",
",,,,,,,,,,,,,,,,,,,,,,,,,,,,,,,,,,,,,,,,,,,,,,,,,,,,,,,,,,,,,,,,",
",,,,,,,,,,,,,,,,,,,,,,,,,,<<<<,<<<<<,,,,,,,,,,,,,,,,,,,,,,,,,,,,",
",,,,,,,,,,,,,,,,,,,,,,,,,<<<<<,<<<<<,,,,,,,,,,,,,,,,,,,,,,,,,,,,",
",,<<<<,<<<<,,,,,,,,,,,,<<,,==,<,>=>,<<,,,,,,,,,,,,,,,,,,,,,,,,,,",
",,<<<<,<<<<<,,,,,,,,,,,<<,&OO=<,+O%><<,,,,,,,,,,,,,,,,,,,,,,,,,,",
",,<<<<,<<<<<,,,,,,,,,,,<<,@  &<=o O=<<,,,,,,,,,,,,,,,,,,,,,,,,,,",
"<,=&*><,=&=,<<,,,,,,,,,<<,&oX+&%oX+><<,,,,,,,,,,,,,,,,,,,,,,,,,,",
"<,&oo*<>OX+><<,,,,,,,,,<<,>=%OXo+*=,<<,,,,,,,,,,,,,,,,,,,,,,,,,,",
"<,@  %,=X O=<<,,,,,,,,,,,,<1>O X*<<<,,,,,,,,,,,,,,,,,,,,,,,,,,,,",
"<,*OoO+OOO&><<,,,,,,,,,,,<<1,&O+=<<<,,,,,,,,,,,,,,,,,,,,,,,,,,,,",
"<,,,&o o%>,,<<,,,,,,,,,,,,<<,>=>,<<<,,,,,,,,,,,,,,,,,,,,,,,,,,,,",
",<<1,O o=11<,,,,,,,,,,,,,,,,<<<<<,,,,,,,,,,,,,,,,,,,,,,,,,,,,,,,",
",,<<,&@&><<<,,,,,,,,,,,,,,,,<<<<<,,,,,,,,,,,,,,,,,,,,,,,,,,,,,,,",
",,<<,,,,,,<,,,,,,,,,,,,,,,,,,,,,,,,,,,,,,,,,,,,,,,,,,,,,,,,,,,,,",
",,,,<<<<<,,,,,,,,,,,,,,,,,,,,,,,,,,,,,,,,,,,,,,,,,,,,,,,,,,,,,,,",
",,,,<<<<<,,,,,,,,,,,,,,,,,,,,,,,,,,,,,,,,,,,,,,,,,,,,,,,,,,,,,,,",
",,,,,,,,,,,,,,,,,,,,,,,,,,,,,,,,,,,,,,,,,,,,,,,,,,,,,,,,,,,,,,,,",
",,,,,,,,,,,,,,,,,,,,,,,,,,,,,,,,,,,,,,,,,,,,,,,,,,,,,,,,,,,,,,,,",
",,,,,,,,,,,,,,,,,,,,,,,,,,,,,,,,,,,,,,,,,,,,,,,,,,,,,,,,,,,,,,,,",
",,,,,,,,,,,,,,,,,,,,,,,,,,,,,,,,,,,,,,,,,,,,,,,<<<<,,<<<,,,,,,,,",
",,,,,,,,,,,,,,,,,,,,,,,,,,,,,,,,,,,,,,,,,,,,,,,<<<<<<<<<<,,,,,,,",
",,,,,,,,,,,,,,,,,,,,,,,,,,,,,,,,,,,,,,,,,,,,,,,<<<<<<<<<<,,,,,,,",
",,,,,,,,,,,,,,,,,,,,,,,,,,,,,,,,,,,,,,,,,,,,,<<>=&=,,=&=><<<,,,,",
",,,,,,,,,,,,,,,,,,,,,,,,,,,,,,,,,,,,,,,,,,,,<<<=OX%<<%XO=<<<,,,,",
",,,,,,,,,,,,,,,,,,,,,,,,,,,,,,,,,,,,,,,,,,,,<<<&X O>>O X&<<<,,,,",
",,,,,,,,,,,,,,,,,,,,,,,,,,,,,,,,,,,,,,,,,,,,<<<=+oO++Oo+=<<<,,,,",
",,,,,,,,,,,,,,,,,,,,,,,,,,,,,,,,,,,,,,,,,,,,,<<,,=O..O=,,<<,,,,,",
",,,,,,,,,,,,,,,,,,,,,,,,,,,,,,,,,,,,,,,,,,,,,,,<1<&XX&<1<,,,,,,,",
",,,,,,,,,,,,,,,,,,,,,,,,,,,,,,,,,,,,,,,,,,,,,,,<<<=%%=<<<,,,,,,,",
",,,,,,,,,,,,,,,,,,,,,,,,,,,,,,,,,,,,,,,,,,,,,,,,<,,,,,,<,,,,,,,,",
",,,,,,,,,,,,,,,,,,,,,,,,,,,,,,,<<<<<<<<<<,,,,,,,,<<<<<<,,,,,,,,,",
",,,,,,,,,,,,,,,,,,,,,,,,,,,,,,,<<<<<<<<<<,,,,,,,,,<<<<,,,,,,,,,,",
",,,,,,,,,,,,,,,,,,,,,,,,,,,,,,,,,,,,,,,,,,<,,,,,,,,,,,,,,,,,,,,,",
",,,,,,,,,,,,,,,,,,,,,,,,,,,,<<<=&@=<<=@&=<<<,,,,,,,,,,,,,,,,,,,,",
",,,,,,,,,,,,,,,,,,,,,,,,,,,,<<<&o +,,+ o&<<<,,,,,,,,,,,,,,,,,,,,",
",,,,,,,,,,,,,,,,,,,,,,,,,,,,<<<*o O==O o*<<<,,,,,,,,,,,,,,,,,,,,",
",,,,,,,,,,,,,,,,,,,,,,,,,,,,<<<>&+OOOOO&><<<,,,,,,,,,,,,,,,,,,,,",
",,,,,,,,,,,,,,,,,,,,,,,,,,,,,,,<<,+  O,<<,<,,,,,,,,,,,,,,,,,,,,,",
",,,,,,,,,,,,,,,,,,,,,,,,,,,,,,,<1<&oo&<1<,,,,,,,,,,,,,,,,,,,,,,,",
",,,,,,,,,,,,,,,,,,,,,,,,,,,,,,,<<<>**><<<,,,,,,,,,,,,,,,,,,,,,,,",
",,,,,,,,,,,,,,,,,,,,,,,,,,,,,,,,,,<<<<,,,,,,,,,,,,,,,,,,,,,,,,,,",
",,,,,,,,,,,,,,,,,,,,,,,,,,,,,,,,,,<<<<,,,,,,,,,,,,,,,,,,,,,,,,,,",
",,,,,,,,,,,,,,,,,,,,,,,,,,,,,,,,,,<<<<,,,,,,,,,,,,,,,,,,,,,,,,,,",
",,,,,,,,,,,,,,,,,,,,,,,,,,,,,,,,,,,,,,,,,,,,,,,,,,,,,,,,,,,,,,,,",
",,,,,,,,,,,,,,,,,,,,,,,,,,,,,,,,,,,,,,,,,,,,,,,,,,,,,,,,,,,,,,,,",
",,,,,,,,,,,,,,,,,,,,,,,,,,,,,,,,,,,,,,,,,,,,,,,,,,,,,,,,,,,,,,,,",
",,,,,<,,::,,,,:,,,<,,,,,,,,,,,,,,,,,,,,,,,,,,,,,,,,,,,,,,,,,,,,,",
",,,,,<<:;$:,,:$;:<<,,,,,,,,,,,,,,,,,,,,,,,,,,,,,,,,,,,,,,,,,,,,,",
",,,,,,,<22<<<<22<,,,,,,,,,,,,,,,,,,,,,,,,,,,,,,,,,,,,,,,,,,,,,,,",
",,,,,:,6wr0,,0rw6,:,,,,,,,,,,,,,,,,,,,,,,,,,,,,,,,,,,,,,,,,,,,,,",
",,,,,;:0adt<<tda0:;,,,,,,,,,,,,,,,,,,,,,,,,,,,,,,,,,,,,,,,,,,,,,",
",,,,,;:0pdu88udp0:;,,,,,,,,,,,,,,,,,,,,,,,,,,,,,,,,,,,,,,,,,,,,,",
",,,,,:,5qtuuuutq5,:,,,,,,,,,,,,,,,<<,:-:,,:;;:,<<,,,,,,,,,,,,,,,",
",,,,,,,,:5tddt5:,,,,,,,,,,,,,,,,,,<<,:::,,,::,,<,,,,,,,,,,,,,,,,",
",,,,,<<:#:qaaq:#:<<,,,,,,,,,,,,,,,,:28082:5006<:,,,,,,,,,,,,,,,,",
",,,,,<,,:,5005,:,,<,,,,,,,,,,,,,,,:;5ysu5$0paw2;:,,,,,,,,,,,,,,,",
",,,,,,,,<,,::,,<,,,,,,,,,,,,,,,,,,:-7ufs92eddr2$:,,,,,,,,,,,,,,,",
",,,,,,,<<,:;;:,<<,,,,,,,,,,,,,,,,,::5quuyryiy0<:,,,,,,,,,,,,,,,,",
",,,,,,,,,,,,,,,,,,,,,,,,,,,,,,,,,,,,<25esdi03<<,,,,,,,,,,,,,,,,,",
",,,,,,,,,,,,,,,,,,,,,,,,,,,,,,,,,,<<,$$8pdy4#$,<<,,,,,,,,,,,,,,,",
",,,,,,,,,,,,,,,,,,,,,,,,,,,,,,,,,,<<,;;5qr0<$:,<,,,,,,,,,,,,,,,,",
",,,,,,,,,,,,,,,,,,,,,,,,,,,,,,,,,,,,,,,<22<<,,,,,,,,,,,,,,,,,,,,",
",,,,,,,,,,,,,,,,,,,,,,,,,,,,,,,,,,,,,<<:;$:,<<,,,,,,,,,,,,,,,,,,"
};
