/* XPM */
static char *a0f7d0367dd042e2a091427970988b8bWL6suwbQUWPNcIDW[] = {
/* columns rows colors chars-per-pixel */
"48 48 5 1 ",
"  c None",
". c #5C4E92",
"X c #766DAA",
"o c #DDD5DE",
"O c #F3F2C0",
/* pixels */
"                                                ",
"                                                ",
"                                                ",
"                                                ",
"                                                ",
"                                                ",
"                                                ",
"                                                ",
"                                                ",
"                                                ",
"                                                ",
"                                                ",
"                                                ",
"                                                ",
"                                                ",
"                                                ",
"                   ...    ...                   ",
"                  .OOO.  .OOO.                  ",
"                  .OOO....OOO.                  ",
"                  .OOOooooOOO.                  ",
"                  .OOOOOOOOOO.                  ",
"                  .OOOOOOOOOO.                  ",
"                 ..OOOOOOOOOO..                 ",
"                  .OOOOOOOOOO.                  ",
"                 ..OOOOOOOOOO..                 ",
"                  .OOOOOOOOOO.                  ",
"                   ..XXXXXX..                   ",
"                  .oOXX..XXOo.                  ",
"                  .oOO.OO.OOo.                  ",
"                   ..OOOOOO..                   ",
"                    .oo..oo.                    ",
"                     ..  ..                     ",
"                                                ",
"                                                ",
"                                                ",
"                                                ",
"                                                ",
"                                                ",
"                                                ",
"                                                ",
"                                                ",
"                                                ",
"                                                ",
"                                                ",
"                                                ",
"                                                ",
"                                                ",
"                                                "
};
