/* XPM */
static char *_6952f6d508a473ddb27f127144eddc6s0ZuXwcph029SN0t[] = {
/* columns rows colors chars-per-pixel */
"64 64 117 2 ",
"   c #1B0074",
".  c #2E027C",
"X  c #32107C",
"o  c #34197A",
"O  c #3A267B",
"+  c #3B297A",
"@  c #44317F",
"#  c #463D78",
"$  c #4B4475",
"%  c #555572",
"&  c #595B71",
"*  c #5C616C",
"=  c #5E6270",
"-  c #656C6F",
";  c #737E68",
":  c #696B77",
">  c #656578",
",  c #6C7477",
"<  c #777D79",
"1  c #72816A",
"2  c #7B866C",
"3  c #7E896D",
"4  c #97B952",
"5  c #9BBD54",
"6  c #A6BF5F",
"7  c #849367",
"8  c #899A66",
"9  c #88956E",
"0  c #8F977C",
"q  c #929F72",
"w  c #8FA262",
"e  c #98AB66",
"r  c #96A769",
"t  c #96A869",
"y  c #9EB266",
"u  c #A0B564",
"i  c #A4BA61",
"p  c #A8BE62",
"a  c #9FC053",
"s  c #A2C156",
"d  c #AECA56",
"f  c #A6C458",
"g  c #AAC65A",
"h  c #ADC95B",
"j  c #B3CD5D",
"k  c #B6D15B",
"l  c #B8D35A",
"z  c #BDD959",
"x  c #ABC260",
"c  c #B5CE61",
"v  c #B9D166",
"b  c #BCD36A",
"n  c #C0DB5B",
"m  c #C0D56F",
"M  c #C2D672",
"N  c #C6D977",
"B  c #C7DA78",
"V  c #CBDC7D",
"C  c #452A86",
"Z  c #4D3B80",
"A  c #4E358C",
"S  c #544583",
"D  c #524496",
"F  c #564A92",
"G  c #544699",
"H  c #584B9C",
"J  c #675D9A",
"K  c #6C638C",
"L  c #6C6290",
"P  c #7C66AC",
"I  c #8174A1",
"U  c #908B8F",
"Y  c #8F9088",
"T  c #848192",
"R  c #8E8596",
"E  c #8E8398",
"W  c #A4A590",
"Q  c #A7A891",
"!  c #B7B69B",
"~  c #978EA8",
"^  c #A496BF",
"/  c #A498B9",
"(  c #A89BBF",
")  c #BEBCA1",
"_  c #B5ABB7",
"`  c #B9AFBE",
"'  c #C0BDA3",
"]  c #CEDF82",
"[  c #D0DF83",
"{  c #D2E185",
"}  c #D6E38A",
"|  c #D8E58D",
" . c #DCE792",
".. c #DDE893",
"X. c #C3C1A3",
"o. c #C9C7A3",
"O. c #CACAA2",
"+. c #C7C5AA",
"@. c #C8C6AB",
"#. c #D3D2AE",
"$. c #DBDCAA",
"%. c #C6C0BA",
"&. c #E3E4AE",
"*. c #E1E1B2",
"=. c #F0F1B3",
"-. c #F7F9B6",
";. c #F9FBB6",
":. c #F8F9BB",
">. c #FEFFB8",
",. c #AE9FC6",
"<. c #DFD9CA",
"1. c #D3C9D0",
"2. c #E6DFD2",
"3. c #EAE6C6",
"4. c #E7E1D0",
"5. c #EAE1DF",
"6. c #F6F1D9",
/* pixels */
"j j j j j j j j j j j j j j j j j j j j j j j j j j j j j j j j j j j j j j j j j j j j j j j j j j j j j j j j j j j j j j j j ",
"j j j j j j j j j j j j j j j j j j j j j j j j j j j j j j j j j j j j j j j j j j j j j j j j j j j j j j j j j j j j j j j j ",
"j j j j j j j j j j j j j j j j j j j j j j j j j j j j j j j j j j j j j j j j j j j j j j j j j j j j j j j j j j j j j j j j ",
"j j j j j j j j j j j j j j j j j j j j j j j j j j j j j j j j j j j j j j j j j j j j j j j j j j j j j j j j j j j j j j j j ",
"j j j j j j j j j j j j j j j j j j j j j j j j j j j h h j j j h h j j j j j j j j j j j j j j j j j j j j j j j j j j j j j j ",
"j j j j j j j j j j j j j j j j j j j j j j j j j j g s s h j j s s f j j j j j j j j j j j j j j j j j j j j j j j j j j j j j ",
"j j j j j j j j j j j j j j j j j j j j j j j j j j f 5 5 g j h 5 5 s h j j j j j j j j j j j j j j j j j j j j j j j j j j j j ",
"j j h g g h j j h g h j j j j j j j j j j j j j j j g 5 5 s g f 5 5 s h j j j j j j j j j j j j j j j j j j j j j j j j j j j j ",
"j j f 5 5 g j j s 5 s h j j j j j j j j j j j j j j j h f 5 5 5 s g h j j j j j j j j j j j j j j j j j j j j j j j j j j j j j ",
"j j f 5 5 f h g 5 5 s h j j j j j j j j j j j j j j j j h s 4 5 g j j j j j j j j j j j j j j j j j j j j j j j j j j j j j j j ",
"j j g s 5 s s s 5 s f j j j j j j j j j j j j j j j j j j f s s h j j j j j j j j j j j j j j j j j j j j j j j j j j j j j j j ",
"j j j j g 5 5 5 f h j j j j j j j j j j j j j j j j j j j j h h j j j j j j j j j j j j j j j j j j j j j j j j j j j j j j j j ",
"j j j j j s 5 5 h j j j j j j j j j j j j j j j j j j j j j j j j j j j j j j j j j j j j j j j j j j j j j j j j j j j j j j j ",
"j j j j j g f f j j j j j j j j j j j j j j j j j j j j j j j j j j j j j j j j j j j j j j j j j j j j j j j j j j j j j j j j ",
"j j j j j j j j j j j j j j j j j j j j j j j j j j j j j j j j j j j j j j j j j j j j j j j j j j j j j j j j j j j j j j j j ",
"j j j j j j j j j j j j j j j j j j j j j j j j j j j j j j j j j j j j j j j j j j j j j j j j j j j j j j j j j j j j j j j j ",
"j j j j j j j j j j j j j j j j j j j j j j j j j j j j j j j j j j j j j j j j j j j j j j j j j j j j j j j j j j j j j j j j ",
"j j j j j j j j j j j j j j j j j j j j j j j j j j j j j j j j j j j j j j j j j j j j j j j j j j j j j j j j j j j j j j j j ",
"j j j j j j j j j j j j j j j j j j j j j j j j j j j j j j j j j j j j j j j j j j j j j j j j j j j j j j j j j j j j j j j j ",
"j j j j j j j j j j j j j j j j j j j j j j j j j j j j j j j j j j j j j j j j j j j j j j j j j j j j j j j j j j j j j j j j ",
"j j j j j j j j j j j j j j j j j j j j j j j j j k l l l j j j j j j l l l k j j j j j j j j j j j j j j j j j j j j j j j j j ",
"j j j j j j j j j j j j j j j j j j j j j j j j z 8 = - = u z j j z u = - = 8 z j j j j j j j j j j j j j j j j j j j j j j j j ",
"j j j j j j j j j j j j j j j j j j j j j j j j e Y E R R 0 i l l i 0 R R E Y e j j j j j j j j j j j j j j j j j j j j j j j j ",
"j j j j j j j j j j j j j j j j j j j j j j k x + X.>.-.>.R & j j & R >.-.>.X.+ x k j j j j j j g g h j j h g g j j j j j j j j ",
"j j j j j j j j j j j j j j j j j j j j j j k x # ' ;.=.-.U   $ $   U ;.=.;.' # x k j j j j j g 5 5 f j j f 5 5 g j j j j j j j ",
"j j j j j j j j j j j j j j j j j j j j j j k x # ' ;.=.=.%.^ ( ( ^ %.=.=.;.' # x k j j j j j g 5 5 s h h s 5 5 g j j j j j j j ",
"j j j j j j j j j j j j j j j j j j j j j j k x # ' ;.=.=.3.2.4.4.2.3.=.=.;.' # x k j j j j j h s 5 s s s s 5 s h j j j j j j j ",
"j j j j j j j j j j j j j j j j j j j j j j k x # ' ;.=.=.=.=.=.=.=.=.=.=.;.' # x k j j j j j j j h s 5 5 s h j j j j j j j j j ",
"j j j j j j j j j j j j j j j j j j j j j j l h # ' ;.=.=.=.=.=.=.=.=.=.=.;.' # h l j j j j j j k j f 5 5 f j k j j j j j j j j ",
"j j j j j j j j j j j j j j j j j j j j j l y > O X.;.=.=.=.=.=.=.=.=.=.=.;.X.O > y l j j j j j j j h f f h j j j j j j j j j j ",
"j j j j j j j j j j j j j j j j j j j j j k u : O X.;.=.=.=.=.=.=.=.=.=.=.;.X.O : u k j j j j j j j j j j j j j j j j j j j j j ",
"j j j j j j j j j j j j j j j j j j j j j j j p # ' ;.=.=.=.=.=.=.=.=.=.=.;.' # p j j j j j j j j j j j j j j j j j j j j j j j ",
"j j j j j j j j j j j j j j j j j j j j j l t @ o X.;.=.=.=.=.=.=.=.=.=.=.;.X.o @ r l j j j j j j j j j j j j j j j j j j j j j ",
"j j j j j j j j j j j j j j j j j j j j j k x 9 . X.>.;.;.;.;.;.;.;.;.;.;.>.+.X 9 x k j j j j j j j j j j j j j j j j j j j j j ",
"j j j j j j j j j j j j j j j j j j j j j j k j 3 Q X.) +.@.@.@.@.@.@.+.) X.W 1 j k j j j j j j j j j j j j j j j j j j j j j j ",
"j j j j j j j j j j j j j j j j j j j j j j j j j < C S D G G D D D G D S C , a g j j j j j j j j j j j j j j j j j j j j j j j ",
"j j j j j j j j j j j j j j j j j j j j j j k x & / <.$.J H F o o F H J $.<./ % 6 k j j j j j j j j j j j j j j j j j j j j j j ",
"j j j j j j j j j j j j j j j j j j j j j j k x o ,.6.;.#.L K o.o.K L #.;.6.,.o 6 k j j j j j j j j j j j j j j j j j j j j j j ",
"j j j j j j j j j j j j j j j j j j j j j j j g 2 ~ _ O.;.! ! >.>.! ! ;.O._ ~ 2 g j j j j j j j j j j j j j j j j j j j j j j j ",
"j j j j j j j j j j j j j j j j j j j j j j j j z 2   S *.:.=.&.&.=.:.*.S   3 n j j j j j j j j j j j j j j j j j j j j j j j j ",
"j j j j j j j j j j j j j j j j j j j j j j j j j j 7 A 1.5.` Z Z ` 5.1.A 7 j j j j j j j j j j j j j j j j j j j j j j j j j j ",
"j j j j j j j j j j j j j j j j j j j j j j j j j k g q I P T w w T P I q g l j j j j j j j j j j j j j j j j j j j j j j j j j ",
"j j j j j j j j j j j j j j j j j j j j j j j j j j l j ; * 8 z z 8 * ; j l j j j j j j j j j j j j j j j j j j j j j j j j j j ",
"j j j j j j j j j j j j j j j j j j j j j j j j j j j j k l k j j k l k j j j j j j j j j j j j j j j j j j j j j j j j j j j j ",
"j j j j j j j j j j j j j j j j j j j j j j j j j j j j j j j j j j j j j j j j j j j j j j j j j j j j j j j j j j j j j j j j ",
"j j j j j j j j j j j j j j j j j j j j j j j j j j j j j j j j j j j j j j j j j j j j j j j j j j j j j j j j j j j j j j j j ",
"j j j j j j j j j j j j j j j j j j j j j j j j j j j j j j j j j j j j j j j j j j j j j j j j j j j j j j j j j j j j j j j j ",
"j j j j j j j j j j j j j j j j j j j j j j j j j j j j j j j j j j j j j j j j j j j j j j j j j j j j j j j j j j j j j j j j ",
"j j j j j j j j d d j j j j d d j j j j j j j j j j j j j j j j j j j j j j j j j j j j j j j j j j j j j j j j j j j j j j j j ",
"j j j j j j j j c c c j j c c c j j j j j j j j j j j j j j j j j j j j j j j j j j j j j j j j j j j j j j j j j j j j j j j j ",
"j j j j j j j b B V m j j m V B b j j j j j j j j j j j j j j j j j j j j j j j j j j j j j j j j j j j j j j j j j j j j j j j ",
"j j j j j d j M } ..V c c V ..} M j d j j j j j j j j j j j j j j j j j j j j j j j j j j j j j j j j j j j j j j j j j j j j j ",
"j j j j j d j M } ..{ m m { ..} M j d j j j j j j j j j j j j j j j j j j j j j j j j j j j j j j j j j j j j j j j j j j j j j ",
"j j j j j j j v M V { { { { V M v j j j j j j j j j j j j j j j j j j j j j d d j j j d d j j j j j j j j j j j j j j j j j j j ",
"j j j j j j j j j v V ....V v j j j j j j j j j j j j j j j j j j j j j j j j j j j j j j j j j j j j j j j j j j j j j j j j j ",
"j j j j j j j j d j M } } M j d j j j j j j j j j j j j j j j j j j j j c b M b c j v M M b j j j j j j j j j j j j j j j j j j ",
"j j j j j j j j j j v M M v j j j j j j j j j j j j j j j j j j j j j j v ] | { v j m } } B c d j j j j j j j j j j j j j j j j ",
"j j j j j j j j j j j j j j j j j j j j j j j j j j j j j j j j j j j j v { ..| m v V ....V c d j j j j j j j j j j j j j j j j ",
"j j j j j j j j j j j d d j j j j j j j j j j j j j j j j j j j j j j j v B { } ] V [ } ] M c j j j j j j j j j j j j j j j j j ",
"j j j j j j j j j j j j j j j j j j j j j j j j j j j j j j j j j j j j j j b V | ..{ M v j j j j j j j j j j j j j j j j j j j ",
"j j j j j j j j j j j j j j j j j j j j j j j j j j j j j j j j j j j j j d j b }  .] v d d j j j j j j j j j j j j j j j j j j ",
"j j j j j j j j j j j j j j j j j j j j j j j j j j j j j j j j j j j j j d j v N V M j d j j j j j j j j j j j j j j j j j j j ",
"j j j j j j j j j j j j j j j j j j j j j j j j j j j j j j j j j j j j j j j j c c c j j j j j j j j j j j j j j j j j j j j j ",
"j j j j j j j j j j j j j j j j j j j j j j j j j j j j j j j j j j j j j j j j d d d j j j j j j j j j j j j j j j j j j j j j "
};
