/* XPM */
static char *a2d88a73a4344272c686ce611a37603arrNPsnpMs3gZUpec[] = {
/* columns rows colors chars-per-pixel */
"64 64 47 1 ",
"  c #49397F",
". c #97BA52",
"X c #98BB53",
"o c #9BBC53",
"O c #9BBD54",
"+ c #9CBD54",
"@ c #A2C156",
"# c #A5C357",
"$ c #ABC852",
"% c #ACC852",
"& c #AECA56",
"* c #A7C558",
"= c #ABC75A",
"- c #ABC85A",
"; c #AFCA5B",
": c #AFCA5C",
"> c #B0CB59",
", c #B2CC5B",
"< c #B0CB5C",
"1 c #B3CD5D",
"2 c #B5CE5E",
"3 c #B7D05E",
"4 c #B5CE60",
"5 c #B7D063",
"6 c #BAD166",
"7 c #BBD268",
"8 c #BDD36C",
"9 c #BFD46D",
"0 c #C0D56F",
"q c #C2D671",
"w c #C4D774",
"e c #C4D874",
"r c #C7D978",
"t c #C8DA79",
"y c #CBDC7D",
"u c #CCDD7E",
"i c #62579A",
"p c #CDDE80",
"a c #D0E084",
"s c #D4E288",
"d c #D7E48B",
"f c #D7E48C",
"g c #D8E48D",
"h c #DFEA96",
"j c #E2EB99",
"k c #F0F1B3",
"l c #D5CBD6",
/* pixels */
"1111111111111111111111111111111111111111111111111111111111111111",
"1111111111111111111111111111111111111111111111111111111111111111",
"1111111111111111111111111122211122211111111111111111111111111111",
"111111111111111111111111112   1122   111111111111111111111111111",
"11111111111111111111111111 kkk 1: kkk 11111111111111111111111111",
"11222211222111111111111121 kkk    kkk 11111111111111111111111111",
"11122111222111111111111221 kkkllllkkk 11111111111111111111111111",
"21;==<11;=;111111111111121 kkkkkkkkkk 11111111111111111111111111",
"21*++=2<@o@;22111111111121 kkkkkkkkkk 11111111111111111111111111",
"21#..*1=O.@;2211111111111  kkkkkkkkkk  1111111111111111111111111",
"21=@+@#@+@=<22111111111111 kkkkkkkkkk 11111111111111111111111111",
"111<=+.O*;111111111111111  kkkkkkkkkk  1111111111111111111111111",
"1123<@.+;22211111111111111 kkkkkkkkkk 11111111111111111111111111",
"11221=#=<221111111111111111  iiiiii  111111111111111111111111111",
"11111111111111111111111111 lkii  iikl 11111111111111111111111111",
"11111222211111111111111111 lkk kk kkl 11111111111111111111111111",
"111111221111111111111111111  kkkkkk  111111111111111111111111111",
"1111111111111111111111111111 ll  ll 1111111111111111111111111111",
"11111111111111111111111111111  11  11111111111111111111111111111",
"1111111111111111111111111111111111111111111111111111111111111111",
"1111111111111111111111111111111111111111111111111111111111111111",
"1111111111111111111111111111111111111111111111122221122221111111",
"1111111111111111111111111111111111111111111111112211112211111111",
"11111111111111111111111111111111111111111111121<;=;11;=;<1211111",
"11111111111111111111111111111111111111111111122;+O*11*O+;2211111",
"11111111111111111111111111111111111111111111122=O.@;;@.O=2211111",
"11111111111111111111111111111111111111111111121;#+@##@+#;2211111",
"1111111111111111111111111111111111111111111111111;@XX@;111111111",
"11111111111111111111111111111111111111111111111232*XX*2321111111",
"11111111111111111111111111111111111111111111111222;**;2221111111",
"1111111111111111111111111111111111111111111111111111111111111111",
"1111111111111111111111111111111112111121111111111122221111111111",
"1111111111111111111111111111111222211222211111111112211111111111",
"1111111111111111111111111111111111111111111111111111111111111111",
"1111111111111111111111111111121;*#-11=#*;12111111111111111111111",
"1111111111111111111111111111122=+.#11#.O=22111111111111111111111",
"1111111111111111111111111111122=+.@;;@.+=22111111111111111111111",
"1111111111111111111111111111121;=#@@@@@=;12111111111111111111111",
"111111111111111111111111111111112<#..#<1111111111111111111111111",
"1111111111111111111111111111111232=++=23211111111111111111111111",
"1111111111111111111111111111111121;==;12111111111111111111111111",
"1111111111111111111111111111111111122111111111111111111111111111",
"1111111111111111111111111111111111222211111111111111111111111111",
"1111111111111111111111111111111111111111111111111111111111111111",
"1111111111111111111111111111111111111111111111111111111111111111",
"1111111111111111111111111111111111111111111111111111111111111111",
"1111111111111111111111111111111111111111111111111111111111111111",
"11111111,,1111,,111111111111111111111111111111111111111111111111",
"1111111,;&>11>&;,11111111111111111111111111111111111111111111111",
"1111111244211244211111111111111111111111111111111111111111111111",
"11111,17ry0110yr71,111111111111111111111111111111111111111111111",
"11111;,qghu11uhgq,;111111111111111111111111111111111111111111111",
"11111;,qdha99ahdq,;111111111111111111111111111111111111111111111",
"11111,16wuaaaauw61,111111111111111111>&>11,;;,111111111111111111",
"11111111>5uhhu5>111111111111111111111,,,111,,1111111111111111111",
"1111111>%>effe>%>111111111111111111,48q94,6qq72,1111111111111111",
"11111111>16qq61>111111111111111111,>6pga6&qdge4;,111111111111111",
"11111111111,,111111111111111111111>&7ajg04thhy4&,111111111111111",
"1111111111,;;,11111111111111111111,>6eaapypspq2>1111111111111111",
"111111111111111111111111111111111111246tghsq42111111111111111111",
"111111111111111111111111111111111111,&&9dhp5$&111111111111111111",
"1111111111111111111111111111111111111;;6eyq2&>111111111111111111",
"1111111111111111111111111111111111111112442111111111111111111111",
"111111111111111111111111111111111111111,;&>111111111111111111111"
};
