/* XPM */
static char *result[] = {
/* columns rows colors chars-per-pixel */
"64 64 123 2 ",
"   c #49397F",
".  c #94B851",
"X  c #97BA52",
"o  c #98BB53",
"O  c #99BB53",
"+  c #9BBC53",
"@  c #9BBC54",
"#  c #9BBD54",
"$  c #9CBD54",
"%  c #9DBE54",
"&  c #9DBE55",
"*  c #9FBF55",
"=  c #9FC055",
"-  c #A0C055",
";  c #A0C056",
":  c #A1C056",
">  c #A1C156",
",  c #A2C156",
"<  c #A3C257",
"1  c #A4C257",
"2  c #A4C357",
"3  c #A5C357",
"4  c #ABC852",
"5  c #ACC852",
"6  c #ADC954",
"7  c #AECA56",
"8  c #AFCA57",
"9  c #A6C458",
"0  c #A7C458",
"q  c #A7C558",
"w  c #A8C558",
"e  c #A8C559",
"r  c #A9C659",
"t  c #AAC659",
"y  c #AAC759",
"u  c #AAC75A",
"i  c #ABC75A",
"p  c #ABC85A",
"a  c #AFCB58",
"s  c #ACC85A",
"d  c #ADC95A",
"f  c #ADC95B",
"g  c #AEC95B",
"h  c #AECA5B",
"j  c #AFCA5B",
"k  c #AFCA5C",
"l  c #B0CB58",
"z  c #B0CB59",
"x  c #B1CC5A",
"c  c #B1CC5B",
"v  c #B2CC5B",
"b  c #B0CB5C",
"n  c #B1CB5C",
"m  c #B1CC5C",
"M  c #B2CC5C",
"N  c #B2CD5C",
"B  c #B3CD5C",
"V  c #B2CC5D",
"C  c #B2CD5D",
"Z  c #B3CD5D",
"A  c #B3CD5E",
"S  c #B4CD5D",
"D  c #B4CE5D",
"F  c #B4CD5E",
"G  c #B4CE5E",
"H  c #B5CE5E",
"J  c #B5CF5E",
"K  c #B4CE5F",
"L  c #B5CE5F",
"P  c #B6CF5E",
"I  c #B7D05E",
"U  c #B5CE60",
"Y  c #B5CF61",
"T  c #B6CE61",
"R  c #B7CF63",
"E  c #B7D063",
"W  c #B8D064",
"Q  c #B9D065",
"!  c #B9D165",
"~  c #B9D166",
"^  c #BAD166",
"/  c #BAD167",
"(  c #BBD268",
")  c #BBD269",
"_  c #BDD36C",
"`  c #BFD46D",
"'  c #C0D56F",
"]  c #C1D670",
"[  c #C1D671",
"{  c #C2D671",
"}  c #C2D672",
"|  c #C3D772",
" . c #C4D774",
".. c #C4D874",
"X. c #C6D977",
"o. c #C7D978",
"O. c #C8DA79",
"+. c #C9DB7A",
"@. c #CBDC7D",
"#. c #CCDD7E",
"$. c #CDDD7F",
"%. c #62579A",
"&. c #CDDE80",
"*. c #CFDF82",
"=. c #CFDF83",
"-. c #D0E084",
";. c #D1E084",
":. c #D2E186",
">. c #D3E186",
",. c #D3E187",
"<. c #D4E288",
"1. c #D6E48B",
"2. c #D7E48B",
"3. c #D7E48C",
"4. c #D8E48D",
"5. c #D9E58E",
"6. c #DAE68F",
"7. c #DFE995",
"8. c #DFE996",
"9. c #DFEA96",
"0. c #E2EB99",
"q. c #F0F1B3",
"w. c #D5CBD6",
/* pixels */
"Z Z Z Z Z Z Z Z Z Z Z Z Z Z Z Z Z Z Z Z Z Z Z Z Z Z Z Z Z Z Z Z Z Z Z Z Z Z Z Z Z Z Z Z Z Z Z Z Z Z Z Z Z Z Z Z Z Z Z Z Z Z Z Z ",
"Z Z Z Z Z Z Z Z Z Z Z Z Z Z Z Z Z Z Z Z Z Z Z Z Z Z Z Z Z Z Z Z Z Z Z Z Z Z Z Z Z Z Z Z Z Z Z Z Z Z Z Z Z Z Z Z Z Z Z Z Z Z Z Z ",
"Z Z Z Z Z Z Z Z Z Z Z Z Z Z Z Z Z Z Z Z Z Z Z Z Z Z S D D Z Z Z D D S Z Z Z Z Z Z Z Z Z Z Z Z Z Z Z Z Z Z Z Z Z Z Z Z Z Z Z Z Z ",
"Z Z Z Z Z Z Z Z Z Z Z Z Z Z Z Z Z Z Z Z Z Z Z Z Z Z D H H S Z Z H H G Z Z Z Z Z Z Z Z Z Z Z Z Z Z Z Z Z Z Z Z Z Z Z Z Z Z Z Z Z ",
"Z Z Z Z Z Z Z Z Z Z Z Z Z Z Z Z Z Z Z Z Z Z Z Z Z Z n j j m Z V k h b V Z Z Z Z Z Z Z Z Z Z Z Z Z Z Z Z Z Z Z Z Z Z Z Z Z Z Z Z ",
"Z Z D H H S Z Z G H D Z Z Z Z Z Z Z Z Z Z Z Z Z G V t : > d H b 3 = 9 b D S Z Z Z Z Z Z Z Z Z Z Z Z Z Z Z Z Z Z Z Z Z Z Z Z Z Z ",
"Z Z Z S S Z Z Z S D S Z Z Z Z Z Z Z Z Z Z Z Z S H M 3 X X e Z f $ . * h H D Z Z Z Z Z Z Z Z Z Z Z Z Z Z Z Z Z Z Z Z Z Z Z Z Z Z ",
"S C j u i b Z m s y f m Z Z Z Z Z Z Z Z Z Z Z Z H V e % # < t 9 % # 2 j H D Z Z Z Z Z Z Z Z Z Z Z Z Z Z Z Z Z Z Z Z Z Z Z Z Z Z ",
"H V q $ % i H b > + < j H D Z Z Z Z Z Z Z Z Z Z S C b s 0 * + & 2 i j M S Z Z Z Z Z Z Z Z Z Z Z Z Z Z Z Z Z Z Z Z Z Z Z Z Z Z Z ",
"H M 3 X X 9 m i # . - h H D Z Z Z Z Z Z Z Z Z Z Z Z H P j ; . @ i H P Z Z Z Z Z Z Z Z Z Z Z Z Z Z Z Z Z Z Z Z Z Z Z Z Z Z Z Z Z ",
"G V i , * , 3 < * ; w b D S Z Z Z Z Z Z Z Z Z Z Z Z H P M q - 2 j P P Z Z Z Z Z Z Z Z Z Z Z Z Z Z Z Z Z Z Z Z Z Z Z Z Z Z Z Z Z ",
"Z Z V n u * X # 0 j M C Z Z Z Z Z Z Z Z Z Z Z Z Z Z Z S C b h j M Z Z Z Z Z Z Z Z Z Z Z Z Z Z Z Z Z Z Z Z Z Z Z Z Z Z Z Z Z Z Z ",
"Z Z J I n , X % s P P S Z Z Z Z Z Z Z Z Z Z Z Z Z Z Z Z Z D H H S Z Z Z Z Z Z Z Z Z Z Z Z Z Z Z Z Z Z Z Z Z Z Z Z Z Z Z Z Z Z Z ",
"Z Z D J V u 3 e b H H Z Z Z Z Z Z Z Z Z Z Z Z Z Z Z Z Z Z S D D Z Z Z Z Z Z Z Z Z Z Z Z Z Z Z Z Z Z Z Z Z Z Z Z Z Z Z Z Z Z Z Z ",
"Z Z Z Z Z V M V V Z Z Z Z Z Z Z Z Z Z Z Z Z Z Z Z Z Z Z Z Z Z Z Z Z Z Z Z Z Z Z Z Z Z Z Z Z Z Z Z Z Z Z Z Z Z Z Z Z Z Z Z Z Z Z ",
"Z Z Z Z Z G H H S Z Z Z Z Z Z Z Z Z Z Z Z Z Z Z Z Z Z Z Z Z Z Z Z Z Z Z Z Z Z Z Z Z Z Z Z Z Z Z Z Z Z Z Z Z Z Z Z Z Z Z Z Z Z Z ",
"Z Z Z Z Z Z S S Z Z Z Z Z Z Z Z Z Z Z Z Z Z Z Z Z Z Z Z Z Z Z Z Z Z Z Z Z Z Z Z Z Z Z Z Z Z Z Z Z Z Z Z Z Z Z Z Z Z Z Z Z Z Z Z ",
"Z Z Z Z Z Z Z Z Z Z Z Z Z Z Z Z Z Z Z Z Z Z Z Z Z Z Z Z Z Z Z Z Z Z Z Z Z Z Z Z Z Z Z Z Z Z Z Z Z Z Z Z Z Z Z Z Z Z Z Z Z Z Z Z ",
"Z Z Z Z Z Z Z Z Z Z Z Z Z Z Z Z Z Z Z Z Z Z Z Z Z Z Z Z Z Z Z Z Z Z Z Z Z Z Z Z Z Z Z Z Z Z Z Z Z Z Z Z Z Z Z Z Z Z Z Z Z Z Z Z ",
"Z Z Z Z Z Z Z Z Z Z Z Z Z Z Z Z Z Z Z Z Z Z Z Z Z Z Z Z Z Z Z Z Z Z Z Z Z Z Z Z Z Z Z Z Z Z Z Z Z Z Z Z Z Z Z Z Z Z Z Z Z Z Z Z ",
"Z Z Z Z Z Z Z Z Z Z Z Z Z Z Z Z Z Z Z Z Z Z Z Z Z Z Z Z Z Z Z Z Z Z Z Z Z Z Z Z Z Z Z Z Z Z Z Z Z Z Z Z Z Z Z Z Z Z Z Z Z Z Z Z ",
"Z Z Z Z Z Z Z Z Z Z Z Z Z Z Z Z Z Z Z Z Z Z Z Z Z Z Z Z Z Z Z Z Z Z Z Z Z Z Z Z Z Z Z Z Z Z Z S H H D Z Z D H H S Z Z Z Z Z Z Z ",
"Z Z Z Z Z Z Z Z Z Z Z Z Z Z Z Z Z Z Z Z Z Z Z Z Z Z Z Z Z Z Z Z Z Z Z Z Z Z Z Z Z Z Z Z Z Z Z Z S D Z Z Z Z S S Z Z Z Z Z Z Z Z ",
"Z Z Z Z Z Z Z Z Z Z Z Z Z Z Z Z Z Z Z Z Z Z Z Z Z Z Z Z Z Z Z Z Z Z Z Z Z Z Z Z Z Z Z Z Z S Z b s y g Z Z g y s b Z S Z Z Z Z Z ",
"Z Z Z Z Z Z Z Z Z Z Z Z Z Z Z Z Z Z Z Z Z Z Z Z Z Z Z Z Z Z Z Z Z Z Z Z Z Z Z Z Z Z Z Z Z H S s * @ 9 Z Z 9 @ * s S H Z Z Z Z Z ",
"Z Z Z Z Z Z Z Z Z Z Z Z Z Z Z Z Z Z Z Z Z Z Z Z Z Z Z Z Z Z Z Z Z Z Z Z Z Z Z Z Z Z Z Z Z H S y @ . ; j j ; . @ t S H Z Z Z Z Z ",
"Z Z Z Z Z Z Z Z Z Z Z Z Z Z Z Z Z Z Z Z Z Z Z Z Z Z Z Z Z Z Z Z Z Z Z Z Z Z Z Z Z Z Z Z Z D Z f 3 * ; 2 2 ; * 3 f S D Z Z Z Z Z ",
"Z Z Z Z Z Z Z Z Z Z Z Z Z Z Z Z Z Z Z Z Z Z Z Z Z Z Z Z Z Z Z Z Z Z Z Z Z Z Z Z Z Z Z Z Z Z Z V m f < o o < f m V Z Z Z Z Z Z Z ",
"Z Z Z Z Z Z Z Z Z Z Z Z Z Z Z Z Z Z Z Z Z Z Z Z Z Z Z Z Z Z Z Z Z Z Z Z Z Z Z Z Z Z Z Z Z Z Z D I S q O O q S I D Z Z Z Z Z Z Z ",
"Z Z Z Z Z Z Z Z Z Z Z Z Z Z Z Z Z Z Z Z Z Z Z Z Z Z Z Z Z Z Z Z Z Z Z Z Z Z Z Z Z Z Z Z Z Z Z S H S f 9 9 f S J S Z Z Z Z Z Z Z ",
"Z Z Z Z Z Z Z Z Z Z Z Z Z Z Z Z Z Z Z Z Z Z Z Z Z Z Z Z Z Z Z Z Z Z Z Z Z Z Z Z Z Z Z Z Z Z Z Z Z Z V M M V Z Z Z Z Z Z Z Z Z Z ",
"Z Z Z Z Z Z Z Z Z Z Z Z Z Z Z Z Z Z Z Z Z Z Z Z Z Z Z Z Z Z Z Z Z S Z Z Z Z S Z Z Z Z Z Z Z Z Z Z Z D H H D Z Z Z Z Z Z Z Z Z Z ",
"Z Z Z Z Z Z Z Z Z Z Z Z Z Z Z Z Z Z Z Z Z Z Z Z Z Z Z Z Z Z Z S H J G Z Z D H H S Z Z Z Z Z Z Z Z Z Z S S Z Z Z Z Z Z Z Z Z Z Z ",
"Z Z Z Z Z Z Z Z Z Z Z Z Z Z Z Z Z Z Z Z Z Z Z Z Z Z Z Z Z Z Z C M M V Z Z V M V V Z Z Z Z Z Z Z Z Z Z Z Z Z Z Z Z Z Z Z Z Z Z Z ",
"Z Z Z Z Z Z Z Z Z Z Z Z Z Z Z Z Z Z Z Z Z Z Z Z Z Z Z Z Z S Z j q 3 p Z Z i 3 q h Z D Z Z Z Z Z Z Z Z Z Z Z Z Z Z Z Z Z Z Z Z Z ",
"Z Z Z Z Z Z Z Z Z Z Z Z Z Z Z Z Z Z Z Z Z Z Z Z Z Z Z Z Z H S u $ X 1 Z Z 1 X $ u S H Z Z Z Z Z Z Z Z Z Z Z Z Z Z Z Z Z Z Z Z Z ",
"Z Z Z Z Z Z Z Z Z Z Z Z Z Z Z Z Z Z Z Z Z Z Z Z Z Z Z Z Z H S i % X ; s s ; X % i S H Z Z Z Z Z Z Z Z Z Z Z Z Z Z Z Z Z Z Z Z Z ",
"Z Z Z Z Z Z Z Z Z Z Z Z Z Z Z Z Z Z Z Z Z Z Z Z Z Z Z Z Z S Z j r 2 > - - > 2 r j Z D Z Z Z Z Z Z Z Z Z Z Z Z Z Z Z Z Z Z Z Z Z ",
"Z Z Z Z Z Z Z Z Z Z Z Z Z Z Z Z Z Z Z Z Z Z Z Z Z Z Z Z Z Z Z Z D b 2 X X 2 b D Z Z Z Z Z Z Z Z Z Z Z Z Z Z Z Z Z Z Z Z Z Z Z Z ",
"Z Z Z Z Z Z Z Z Z Z Z Z Z Z Z Z Z Z Z Z Z Z Z Z Z Z Z Z Z Z Z D I D r % % r D I D Z Z Z Z Z Z Z Z Z Z Z Z Z Z Z Z Z Z Z Z Z Z Z ",
"Z Z Z Z Z Z Z Z Z Z Z Z Z Z Z Z Z Z Z Z Z Z Z Z Z Z Z Z Z Z Z Z D Z j i i j Z D Z Z Z Z Z Z Z Z Z Z Z Z Z Z Z Z Z Z Z Z Z Z Z Z ",
"Z Z Z Z Z Z Z Z Z Z Z Z Z Z Z Z Z Z Z Z Z Z Z Z Z Z Z       Z Z Z Z       Z Z Z Z Z Z Z Z Z Z Z Z Z Z Z Z Z Z Z Z Z Z Z Z Z Z Z ",
"Z Z Z Z Z Z Z Z Z Z Z Z Z Z Z Z Z Z Z Z Z Z Z Z Z Z   q.q.q.  Z Z   q.q.q.  Z Z Z Z Z Z Z Z Z Z Z Z Z Z Z Z Z Z Z Z Z Z Z Z Z Z ",
"Z Z Z Z Z Z Z Z Z Z Z Z Z Z Z Z Z Z Z Z Z Z Z Z Z Z   q.q.q.        q.q.q.  Z Z Z Z Z Z Z Z Z Z Z Z Z Z Z Z Z Z Z Z Z Z Z Z Z Z ",
"Z Z Z Z Z Z Z Z Z Z Z Z Z Z Z Z Z Z Z Z Z Z Z Z Z Z   q.q.q.w.w.w.w.q.q.q.  Z Z Z Z Z Z Z Z Z Z Z Z Z Z Z Z Z Z Z Z Z Z Z Z Z Z ",
"Z Z Z Z Z Z Z Z Z Z Z Z Z Z Z Z Z Z Z Z Z Z Z Z Z Z   q.q.q.q.q.q.q.q.q.q.  Z Z Z Z Z Z Z Z Z Z Z Z Z Z Z Z Z Z Z Z Z Z Z Z Z Z ",
"Z Z Z Z Z Z Z Z Z Z Z Z Z Z Z Z Z Z Z Z Z Z Z Z Z Z   q.q.q.q.q.q.q.q.q.q.  Z Z Z Z Z Z Z Z Z Z Z Z Z Z Z Z Z Z Z Z Z Z Z Z Z Z ",
"Z Z Z Z Z Z Z N v c M Z Z M c v M Z Z Z Z Z Z Z Z     q.q.q.q.q.q.q.q.q.q.    Z Z Z Z Z Z Z Z Z Z Z Z Z Z Z Z Z Z Z Z Z Z Z Z Z ",
"Z Z Z Z Z Z Z v a 7 z B N z 7 a c Z Z Z Z Z Z Z Z Z   q.q.q.q.q.q.q.q.q.q.  Z Z Z Z Z Z Z Z Z Z Z Z Z Z Z Z Z Z Z Z Z Z Z Z Z Z ",
"Z Z Z Z Z Z Z F U U K Z Z K U U F Z Z Z Z Z Z Z Z     q.q.q.q.q.q.q.q.q.q.    Z Z Z Z Z Z Z Z Z Z Z Z Z Z Z Z Z Z Z Z Z Z Z Z Z ",
"Z Z Z Z Z x M ( o.@.' B N ' @.o.( M x Z Z Z Z Z Z Z   q.q.q.q.q.q.q.q.q.q.  Z Z Z Z Z Z Z Z Z Z Z Z Z Z Z Z Z Z Z Z Z Z Z Z Z Z ",
"Z Z Z Z N a x { 4.7.$.A A $.7.4.{ x a N Z Z Z Z Z Z Z     %.%.%.%.%.%.    Z Z Z Z Z Z Z Z Z Z Z Z Z Z Z Z Z Z Z Z Z Z Z Z Z Z Z ",
"Z Z Z Z N a x [ 2.9.:.` ` :.9.2.[ x a N Z Z Z Z Z Z   w.q.%.%.    %.%.q.w.  M B Z Z Z N N Z Z Z Z Z Z Z Z Z Z Z Z Z Z Z Z Z Z Z ",
"Z Z Z Z Z x M ^  .#.-.,.>.-.#. .^ M x Z Z Z Z Z Z Z   w.q.q.  q.q.  q.q.w.  8 z M Z c a a x Z Z Z Z Z Z Z Z Z Z Z Z Z Z Z Z Z Z ",
"Z Z Z Z Z Z Z M z E #.8.8.#.E z M Z Z Z Z Z Z Z Z Z Z     q.q.q.q.q.q.    v x c M Z M x x M Z Z Z Z Z Z Z Z Z Z Z Z Z Z Z Z Z Z ",
"Z Z Z Z Z Z Z z 5 z ..3.3...z 5 z Z Z Z Z Z Z Z Z Z Z Z   w.w.    w.w.  Y _ | ` U v Q [ { ( F c M Z Z Z Z Z Z Z Z Z Z Z Z Z Z Z ",
"Z Z Z Z Z Z Z M z M / { [ / M z M Z Z Z Z Z Z Z Z Z Z Z Z     Z Z     l / &.6.;.! 8 ] 1.4.X.U a v Z Z Z Z Z Z Z Z Z Z Z Z Z Z Z ",
"Z Z Z Z Z Z Z Z Z Z M x x M Z Z Z Z Z Z Z Z Z Z Z Z Z Z Z Z Z Z Z Z z 8 ) :.0.5.' T +.7.7.@.U 7 c Z Z Z Z Z Z Z Z Z Z Z Z Z Z Z ",
"Z Z Z Z Z Z Z Z Z Z x a a x Z Z Z Z Z Z Z Z Z Z Z Z Z Z Z Z Z Z Z Z x z W X.:.,.&.@.=.<.*.[ K z M Z Z Z Z Z Z Z Z Z Z Z Z Z Z Z ",
"Z Z Z Z Z Z Z Z Z Z Z B N Z Z Z Z Z Z Z Z Z Z Z Z Z Z Z Z Z Z Z Z Z N M F U ~ O.5.8.<.} R K Z M Z Z Z Z Z Z Z Z Z Z Z Z Z Z Z Z ",
"Z Z Z Z Z Z Z Z Z Z Z Z Z Z Z Z Z Z Z Z Z Z Z Z Z Z Z Z Z Z Z Z Z Z Z Z v 6 6 ` 1.7.*.E 4 7 Z Z Z Z Z Z Z Z Z Z Z Z Z Z Z Z Z Z ",
"Z Z Z Z Z Z Z Z Z Z Z Z Z Z Z Z Z Z Z Z Z Z Z Z Z Z Z Z Z Z Z Z Z Z Z Z M a a Q X.@.{ L 7 z Z Z Z Z Z Z Z Z Z Z Z Z Z Z Z Z Z Z ",
"Z Z Z Z Z Z Z Z Z Z Z Z Z Z Z Z Z Z Z Z Z Z Z Z Z Z Z Z Z Z Z Z Z Z Z Z Z Z Z F U U K Z Z Z Z Z Z Z Z Z Z Z Z Z Z Z Z Z Z Z Z Z ",
"Z Z Z Z Z Z Z Z Z Z Z Z Z Z Z Z Z Z Z Z Z Z Z Z Z Z Z Z Z Z Z Z Z Z Z Z Z Z Z c a 7 z M Z Z Z Z Z Z Z Z Z Z Z Z Z Z Z Z Z Z Z Z "
};
