/* XPM */
static char *_94c436da6274e27fcc5c1ae2020dc4fSZ9s9Kvag6HiShyo[] = {
/* columns rows colors chars-per-pixel */
"64 64 149 2 ",
"   c #7F554C",
".  c #665E58",
"X  c #6C6157",
"o  c #726656",
"O  c #4D6766",
"+  c #4E6966",
"@  c #516C67",
"#  c #526C68",
"$  c #547367",
"%  c #5A7364",
"&  c #5B7C66",
"*  c #557468",
"=  c #597C69",
"-  c #637E63",
";  c #617F6B",
":  c #81564F",
">  c #8B5A49",
",  c #996547",
"<  c #91624D",
"1  c #9A6748",
"2  c #9B6A49",
"3  c #8F6751",
"4  c #866851",
"5  c #8D6C54",
"6  c #996A51",
"7  c #8A7352",
"8  c #A4744F",
"9  c #A67750",
"0  c #A47855",
"q  c #AC7E54",
"w  c #957A60",
"e  c #798A5F",
"r  c #5C8569",
"t  c #5F886A",
"y  c #668063",
"u  c #6A8464",
"i  c #6F8A63",
"p  c #62806B",
"a  c #6A8769",
"s  c #628C6C",
"d  c #6C8C6D",
"f  c #68936E",
"g  c #749162",
"h  c #799462",
"j  c #7F9962",
"k  c #6C8E71",
"l  c #6D9770",
"z  c #6F9972",
"x  c #729674",
"c  c #739A74",
"v  c #789E76",
"b  c #77A075",
"n  c #7CA577",
"m  c #7FA679",
"M  c #9A9E5A",
"N  c #AE8055",
"B  c #B28456",
"V  c #B48659",
"C  c #B68859",
"Z  c #B1955B",
"A  c #B1985D",
"S  c #85A15D",
"D  c #97BA52",
"F  c #9BBC53",
"G  c #99B35F",
"H  c #9FB95F",
"J  c #A6AC59",
"K  c #A9AD5E",
"L  c #A4B45D",
"P  c #A4BA5E",
"I  c #86A061",
"U  c #8CA661",
"Y  c #94B060",
"T  c #9AB460",
"R  c #80A77A",
"E  c #85AE7B",
"W  c #87B17C",
"Q  c #8BB47E",
"!  c #8EB97F",
"~  c #A2A464",
"^  c #ABB162",
"/  c #A4BA60",
"(  c #A9BE64",
")  c #ABBF69",
"_  c #ADAA71",
"`  c #B3AE7A",
"'  c #B1BE73",
"]  c #BBB977",
"[  c #A2C256",
"{  c #AECA55",
"}  c #A6C25C",
"|  c #ABC65C",
" . c #AEC95C",
".. c #B0CB57",
"X. c #B1CC5C",
"o. c #B3CD5D",
"O. c #B3CE5D",
"+. c #AAC262",
"@. c #AFC26C",
"#. c #B6CF62",
"$. c #B1C36F",
"%. c #B6D061",
"&. c #B9D165",
"*. c #BDD46A",
"=. c #BDCF76",
"-. c #B6C578",
";. c #B8C778",
":. c #BCCA7F",
">. c #BFD471",
",. c #C2D771",
"<. c #C6DA76",
"1. c #C3D47B",
"2. c #CADC7B",
"3. c #8DB780",
"4. c #92BD82",
"5. c #93C082",
"6. c #96C282",
"7. c #99C383",
"8. c #99C484",
"9. c #9DCB86",
"0. c #9ECC86",
"q. c #A0CD87",
"w. c #A4CF87",
"e. c #BECB81",
"r. c #A4D187",
"t. c #A8D387",
"y. c #ABD487",
"u. c #ACD587",
"i. c #AAD488",
"p. c #ADD688",
"a. c #B1D787",
"s. c #B2D887",
"d. c #B3D988",
"f. c #B5D988",
"g. c #B6DC88",
"h. c #C1CD87",
"j. c #C4CD8A",
"k. c #C6D580",
"l. c #CFDF81",
"z. c #C9D28F",
"x. c #D1DF8B",
"c. c #CAD291",
"v. c #CFE083",
"b. c #D0E082",
"n. c #D6E48A",
"m. c #D8E58E",
"M. c #D7E392",
"N. c #DBE793",
"B. c #DDE892",
/* pixels */
"o.o.| F F | o. .F F [ o.o.o.o.o.o.o.o.o.o.o.o.o.o.o.o. . .[ F F |  .o.o.o.o.o.o.o.o.o.o.o.o.o.o.o.o.o.o.o.o.o.o.o.o.o.o.o.o.o.o.",
"o.o.| F F | o. .F D [ o.o.o.o.o.o.o.o.o.o.o.o.o.o.o.o.o.o.[ D F  .o.o.o.o.o.o.o.o.o.o.o.o.o.o.o.o.o.o.o.o.o.o.o.o.o.o.o.o.o.o.o.",
"o.o. .[ [ [ [ [ [ [ | o.o.o.o.o.o.o.o.o.o.o.o.o.o.o.o.o.o.| [ [  .o.o.o.o.o.o.o.o.o.o.o.o.o.o.o.o.o.o.o.o.o.o.o.o.o.o.o.o.o.o.o.",
"o.o.o.o.o.[ D F  .o.o.o.o.o.o.o.o.o.o.o.o.o.o.o.o.o.o.o.o.o.o.o.o.o.o.o.o.o.o.o.o.o.o.o.o.o.o.o.o.o.o.o.o.o.o.o.o.o.o.o.o.o.o.o.",
"o.o.o.o.o.[ F F  .o.o.o.o.o.o.o.o.o.o.o.o.o.o.o.o.o.o.o.o.o.o.o.o.o.o.o.o.o.o.o.o.o.o.o.o.o.o.o.o.o.o.o.o.o.o.o.o.o.o.o.o.o.o.o.",
"o.o.o.o.o. .| | o.o.o.o.o.o.o.o.o.o.o.o.o.o.o.o.o.o.o.o.o.o.o.o.o.o.o.o.o.o.o.o.o.o.o.o.o.o.o.o.o.o.o.o.o.o.o.o.o.o.o.o.o.o.o.o.",
"o.o.o.o.o.o.o.o.o.o.o.o.o.o.o.o.o.o.o.o.o.o.o.o.o. .T G G G G G G G G G G G G G G o.o.o.o.o.o.o.o.o.o.o.o.o.o.o.o.o.o.o.o.o.o.o.",
"o.o.o.o.o.o.o.o.o.o.o.o.o.o.o.o.o.o.o.o.o.o.o.o.o.G @ O O O O O O O O O O O O O %  .o.o.o.o.o.o.o.o.o.o.o.o.o.o.o.o.o.o.o.o.o.o.",
"o.o.o.o.o.o.o.o.o.o.o.o.o.o.o.o.o.o.o.o.o.o.U y y a c R Q Q Q Q Q Q Q Q Q R v v x u U o.o.o.o.o.o.o.o.o.o.o.o.o.o.o.o.o.o.o.o.o.",
"o.o.o.o.o.o.o.o.o.o.o.o.o.o.o.o.o.o.o. . . .j @ # = E 4.q.q.q.q.q.q.q.q.q.6.Q W R $ j  . . .o.o.o.o.o.o.o.o.o.o.o.o.o.o.o.o.o.o.",
"o.o.o.o.o.o.o.o.o.o.o.o.o.o.o.o.o.o. .- % % d R 4.6.9.9.q.d.d.d.d.d.q.q.d.a.u.q.8.R d % % -  .o.o.o.o.o.o.o.o.o.o.o.o.o.o.o.o.o.",
"o.o.o.o.o.o.o.o.o.o.o.o.o.o.o.o.o.H Y ; = p c ! 9.q.q.q.q.d.g.g.g.f.q.q.f.g.f.r.9.! x = = ; Y H o.o.o.o.o.o.o.o.o.o.o.o.o.o.o.o.",
"o.o.o.o.o.o.o.o.o.o.o.o.o.o.o.o.o.y @ m ! q.q.q.q.q.q.q.q.d.g.g.g.f.q.q.f.g.f.r.q.q.4.E E m @ y o.o.o.o.o.o.o.o.o.o.o.o.o.o.o.o.",
"o.o.o.o.o.o.o.o.o.o.o.o.o.o.o.} j d k 3.7.y.y.y.y.r.q.r.u.f.g.g.d.i.q.q.i.i.i.q.q.q.8.4.4.3.k d j } o.o.o.o.o.o.o.o.o.o.o.o.o.o.",
"o.o.o.o.o.o.o.o.o.o.o.o.o.o. .Y @ v W 9.r.g.g.g.g.d.q.u.g.g.f.g.y.q.q.q.q.q.q.q.q.q.q.q.q.9.W v @ Y  .o.o.o.o.o.o.o.o.o.o.o.o.o.",
"o.o.o.o.o.o.o.o.o.o.o.o.o. .- p m E W 9.r.g.g.g.g.f.f.f.g.g.f.r.q.q.q.q.d.d.d.d.d.q.q.q.q.9.W E m p -  .o. . . .o.o.o.o.o.o.o.o.",
"o.o.o.o.o.o.o.o.o.o.o.o.o. .% = ! ! ! 9.w.d.d.d.f.g.g.f.d.d.p.q.q.q.q.q.f.g.g.g.f.r.r.r.r.q.Q E E = % | o.[ F [  .o.o.o.o.o.o.o.",
"o.o.o.o.o.o.o.o.o.o.o.o.o. .% ; 9.9.9.q.q.q.q.q.f.g.g.p.q.q.q.q.q.q.q.q.f.g.g.g.f.g.f.f.f.u.Q E E = % | o.[ D F  .o.o.o.o.o.o.o.",
"o.o.o.o.o.o.o.o.o.o.o.o.U j d c q.q.q.q.q.q.q.q.t.y.y.r.q.q.q.q.q.q.q.q.y.y.y.y.u.f.g.g.g.s.6.4.4.x d h S [ [ [  .o.o.o.o.o.o.o.",
"o.o.o.o.o.o.o.o.o.o.o.o.y @ m ! q.q.q.q.q.q.q.q.q.q.q.q.q.q.q.q.q.q.q.q.q.q.q.q.q.d.f.f.f.d.q.q.q.! m @ - } o.o.o.o.o.o.o.o.o.o.",
"o.o.o.o.o.o.o.o.o.o.o.o.y @ m ! q.q.q.q.q.q.q.q.q.q.q.q.q.q.q.q.q.q.q.q.q.q.q.q.q.r.r.r.r.r.q.q.q.! m @ - | o.o.o.o.o.o.o.o.o.o.",
"o.o.o.o.o.o.o.o.o.o.o.o.y @ m ! 9.9.9.q.q.q.q.q.9.9.9.9.q.q.q.q.q.q.q.q.q.9.9.9.9.9.0.q.q.q.9.9.9.! m @ -  .o.o.o.o.o.o.o.o.o.o.",
"o.o.o.o.o.o.o.o.o.o.o.o.y @ m W W W Q 9.q.q.q.9.Q W W 4.q.q.q.q.q.q.q.q.q.4.W W W W 5.q.q.9.Q W W W m @ y o.o.o.o.o.o.o.o.o.o.o.",
"o.o.o.o.o.o.o.o.o.o.o.o.y @ m E E E W 9.q.q.q.9.Q E E 4.q.q.q.q.q.q.q.q.q.4.E E E E 4.q.q.9.W E E x d j U o.o.o.o.o.o.o.o.o.o.o.",
"o.o.o.o.o.o.o.o.o.o.o.o.y @ m E E E W 9.q.q.q.9.Q E E 4.q.q.q.q.q.q.q.q.q.4.E E E E 4.q.q.9.W E E = %  .o.o.o.o.o.o.o.o.o.o.o.o.",
"o.o.o.o.o.o.o.o.o.o.o.o.y @ m E E E W ! ! ! ! ! W E E Q ! ! ! ! 6.q.q.9.! 4.8.8.8.8.4.! ! ! W E E = %  .o.o.o.o.o.o.o.o.o.o.o.o.",
"o.o.o.o.o.o.o.o.o.o.o.o.i % v R E E E E W Q Q Q Q Q E E E E E E 4.9.9.8.W 4.9.9.9.9.4.E E E W W E ; & P | o.o.o.o.o.o.o.o.o.o.o.",
"o.o.o.o.o.o.o.o.o.o.o.o. .} % = E E E E ! 9.9.9.9.7.W E E E E E W W W W E W W W W W W E E E E E E E n $ u o.o.o.o.o.o.o.o.o.o.o.",
"o.o.o.o.o.o.o.o.o.o.o.o.o. .% = E E E E ! 8.8.8.8.4.W E E E E E E E E E W W E E E E E E E E E W E E m @ y o.o.o.o.o.o.o.o.o.o.o.",
"o.o.o.o.o.o.o.o.o.o.o.o.o. .% = E E E E E E E E E W W E E E E E E E E E E E E E E E E E E E E W E E m @ y o.o.o.o.o.o.o.o.o.o.o.",
"o.o.o.o.o.o.o.o.o.o.o.o.h y & s E E E E E E E E E E E E E E E E E E E E E E E E E E E E E E E E E l s + y o.o.o.o.o.o.o.o.o.o.o.",
"o.o.o.o.o.o.o.o.o.o.o.o.y + r s R R R E E R R R E E E E R R R R E E E E E E E E E R R R R R R R R s r + y o.o.o.o.o.o.o.o.o.o.o.",
"o.o.o.o.o.o.o.o.o.o.o.o.y + r r s s s R n s s s R E E c s s s s c E E E E E E W R s s s s s s s s r r + y o.o.o.o.o.o.o.o.o.o.o.",
"o.o.o.o.o.o.o.o.o.o.o.o.y + r r r r t R n r r t R E E c r r r r c E E E E E E E R s r r r r r r r r r + y o.o.o.o.o.o.o.o.o.o.o.",
"o.o.o.o.o.o.o.o.o.o.o.o.y + r r r r t R n r r t R E E c r r r r c E E E E E E E R t r r r r r r r r r + y o.o.o.o.o.o.o.o.o.o.o.",
"o.o.o.o.o.o.o.o.o.o.o.o.y + r r r r r s s r r r s s s c n n n n R E E R f s s s f b n n n b t r r * % Y H o.o.o.o.o.o.o.o.o.o.o.",
"o.o.o.o.o.o.o.o.o.o.o.o.u @ r r r r r r t t t t r r r z E E E E E E E m t r r r s R E E E m t r r @ %  .o.o.o.o.o.o.o.o.o.o.o.o.",
"o.o.o.o.o.o.o.o.o.o.o.o.| P % $ r r t n R R R m s r r t s s s s s s s s r r r r r s s s s s r r r @ %  .o.o.o.o.o.o.o.o.o.o.o.o.",
"o.o.o.o.o.o.o.o.o.o.o.o.o. .% @ r r t b n n n b s r r r r r r r r r r r r r r r r r r r r r r r r @ %  .o.o.o.o.o.o.o.o.o.o.o.o.",
"o.o.o.o.o.o.o.o.o.o.o.o.o. .% @ r r r r r r r r r r r r r r r r r r r r r r r r r r r r r r r r r @ %  .o.o.o.o.o.o.o.o.o.o.o.o.",
"o.o.o.o.o.o.o.o.o.o.o.o.o.o.I g * r r r r r r r r r r r r r r r r r r r r r r r r r r r r r r r * g I o.o.o.o.o.o.o.o.o.o.o.o.o.",
"o.o.o.o.o.o.o.o.o.o.o.o.o.o.o.G @ & r r r r r r r r r r r r r r r r r r r r r r r r r r r r r & @ G o.o.o.o.o.o.o.o.o.o.o.o.o.o.",
"o.o.o.o.o.o.o.#.,.<.*.o.o.*.<.>.+.- + + $ r r r r r r r r r r r r r r r r r r r r r * + + + + - } o.o.o.o.o.o.o.o.o.o.o.o.o.o.o.",
"o.o.o.o.o.o.o.*.n.B.l.%.%.l.B.n.*.h y y - = = = = = = = = = = = = = = = = = = = = = & y y y y h o.o.o.o.o.o.o.o.o.o.o.o.o.o.o.o.",
"o.o.o.o.o.o.o.*.n.B.l.&.&.l.B.n.*. .|  .Y + + + + + + + + + + + + + + + + + + + + + j  . . . . .o.o.o.o.o.o.o.o.o.o.o.o.o.o.o.o.",
"o.o.o.o.o.o.o.#.,.<.2.b.b.2.<.,.#.o.o.o.} j j j j e . X o o o o o o o o o X . e j j T o.o.o.o.o.o.o.o.o.o.o.o.o.o.o.o.o.o.o.o.o.",
"o.o.o.o.o.o.o.o.o.o.<.B.B.<.o.o.o.o.o.o.o.o.o.o.o.J   > 1 , , , , , , , 1 >   J o.o.o.o.o.o.o.o.o.o.o.o.o.o.o.o.o.o.o.o.o.o.o.o.",
"o.o.o.o.o.o.o.o.o.o.,.n.n.,.o.o.o.o.o.o.o.o.o.o.o.J   < 8 1 , , , , , 1 8 < : ^ o.o.#.*.*.#.o.o.o.o.o.o.o.o.o.o.o.o.o.o.o.o.o.o.",
"o.o.o.o.o.o.o.o.o.o.#.*.*.#.o.o.o.o.o.o.o.o.o.o.o.J   < 8 2 1 1 1 1 1 2 8 < : ] &.o.,.n.n.,.o.o.o.o.o.o.o.o.o.o.o.o.o.o.o.o.o.o.",
"o.o.o.o.o.o.o.o.o.o.o.o.o.o.o.o.o.o.o.o.o.o.o.o./ M   < 9 8 8 8 8 8 8 8 9 < : ` @.o.<.B.B.<.o.o.o.o.o.o.o.o.o.o.o.o.o.o.o.o.o.o.",
"o.o.o.o.o.o.o.o.o.o.o.o.o.o.o.o.o.o.o.o.o.| | | / M   < 9 q q 9 q N N N N < : _ ;.=.1.k.l.*.o.o.o.o.o.o.o.o.o.o.o.o.o.o.o.o.o.o.",
"o.o.o.o.o.o.o.o.o.o.o.o.o.o.o.o.o.o.o.o. ./ / / / M   < 9 C C 9 N C C C C 6   ~ j.z.e.( #.o.o.o.o.o.o.o.o.o.o.o.o.o.o.o.o.o.o.o.",
"o.o.o.o.o.o.o.o.o.o.o.o.o.o.o.o.o.o.o.| P / / L 7 5 0 q B C C B C C C C C N 0 5 w j.e./ ( | o.o.o.o.o.o.o.o.o.o.o.o.o.o.o.o.o.o.",
"o.o.o.o.o.o.o.o.o.o.o.o.o.o.o.o.o.o.o.P / / / L 4 3 V C C C C C C C C C C C V 3 5 ' @./ / P o.o.o.o.o.o.o.o.o.o.o.o.o.o.o.o.o.o.",
"o.o.o.o.o.o.o.o.o.o.o.o.o.o.o.o.o.o.o.P / / / P L K C C C C C C C C C C C C C J L / P P P P o.o.o.o.o.o.o.o.o.o.o.o.o.o.o.o.o.o.",
"o.o.o.o.o.o.o.o.o.o.o.o.o.o.o.o.o.o.o.| P / / / / L Z Z Z Z Z C C C Z Z Z Z A ^ / P / ( ( +.o.o.o.o.o.o.o.o.o.o.o.o.o.o.o.o.o.o.",
"o.o.o.o.o.o.o.o.o.o.&.*.*.&.o.o.o.o.o.o. ./ / / / / / / / / L C C C L P ) :.j.e.( P $.h.x.<.#...o.o.o.o.o.o.o.o.o.o.o.o.o.o.o.o.",
"o.o.o.o.o.o.o.o.o.o.o.o.o.o.o.o.o.o.o.o.o. . . .P / / / / / P K K K L P ) e.c.j.$.#.1.M.N.2.#.{ o.o.o.o.o.o.o.o.o.o.o.o.o.o.o.o.",
"o.o.o.o.o.o.o.o.o.o.o.....o.o.o.o.o.o.o.o.o.o.o.P / / / / / / / / / P P ( -.e.h.:.2.l.n.l.,.#.o.o.o.o.o.o.o.o.o.o.o.o.o.o.o.o.o.",
"o.o.o.o.o.o.o.o.o.o.o.o.o.o.o.o.o.o.o.o.o.o.o.o.o.o.o.o.o.o.o.o.o.o.o.o.o.#.*.<.m.B.n.,.&.o.o.o.o.o.o.o.o.o.o.o.o.o.o.o.o.o.o.o.",
"o.o.o.o.o.o.o.o.o.o.o.o.o.o.o.o.o.o.o.o.o.o.o.o.o.o.o.o.o.o.o.o.o.o.o.o.o.{ o.*.n.B.v.&.{ ..o.o.o.o.o.o.o.o.o.o.o.o.o.o.o.o.o.o.",
"o.o.o.o.o.o.o.o.o.o.o.o.o.o.o.o.o.o.o.o.o.o.o.o.o.o.o.o.o.o.o.o.o.o.o.o.o...o.&.<.2.,.#...o.o.o.o.o.o.o.o.o.o.o.o.o.o.o.o.o.o.o.",
"o.o.o.o.o.o.o.o.o.o.o.o.o.o.o.o.o.o.o.o.o.o.o.o.o.o.o.o.o.o.o.o.o.o.o.o.o.o.o.o.#.#.#.o.o.o.o.o.o.o.o.o.o.o.o.o.o.o.o.o.o.o.o.o.",
"o.o.o.o.o.o.o.o.o.o.o.o.o.o.o.o.o.o.o.o.o.o.o.o.o.o.o.o.o.o.o.o.o.o.o.o.o.o.o.o.{ { o.o.o.o.o.o.o.o.o.o.o.o.o.o.o.o.o.o.o.o.o.o."
};
